<?xml version="1.0" encoding="UTF-8" standalone="no"?>
<svg
   version="1.1"
   id="Layer_1"
   x="0px"
   y="0px"
   width="100%"
   viewBox="0 0 2449 860"
   enable-background="new 0 0 2449 860"
   xml:space="preserve"
   sodipodi:docname="IAA-Logo-2022.svg"
   inkscape:version="1.1.1 (3bf5ae0d25, 2021-09-20)"
   xmlns:inkscape="http://www.inkscape.org/namespaces/inkscape"
   xmlns:sodipodi="http://sodipodi.sourceforge.net/DTD/sodipodi-0.dtd"
   xmlns="http://www.w3.org/2000/svg"
   xmlns:svg="http://www.w3.org/2000/svg"><defs
   id="defs65" /><sodipodi:namedview
   id="namedview63"
   pagecolor="#ffffff"
   bordercolor="#666666"
   borderopacity="1.0"
   inkscape:pageshadow="2"
   inkscape:pageopacity="0.0"
   inkscape:pagecheckerboard="0"
   showgrid="false"
   inkscape:zoom="2.0449163"
   inkscape:cx="1120.8283"
   inkscape:cy="452.58577"
   inkscape:window-width="3200"
   inkscape:window-height="1711"
   inkscape:window-x="-9"
   inkscape:window-y="-9"
   inkscape:window-maximized="1"
   inkscape:current-layer="Layer_1" />


<path
   fill="#04207A"
   opacity="1.000000"
   stroke="none"
   d=" M1.000012,858.500000   C6.169977,853.996887 11.384802,850.050110 16.501715,845.980347   C33.600109,832.380676 50.653648,818.724670 67.743187,805.113892   C83.404510,792.640564 99.067696,780.169373 114.771805,767.749939   C129.439713,756.149963 144.172409,744.631897 158.858582,733.054993   C175.622253,719.840515 192.362640,706.596436 209.119263,693.372986   C224.058716,681.583557 238.991714,669.785828 253.954330,658.025757   C273.339661,642.789490 292.719086,627.545410 312.163116,612.384216   C325.606445,601.901978 339.161224,591.562744 352.654724,581.144714   C374.264893,564.460022 395.834778,547.723083 417.480499,531.084717   C433.095398,519.082031 448.787720,507.179810 464.477661,495.275146   C491.634003,474.670410 518.753906,454.016846 546.001953,433.533997   C578.281189,409.269165 610.567139,385.010559 643.057373,361.029999   C678.211609,335.083099 713.507202,309.324768 748.925598,283.739532   C776.026978,264.162323 803.264648,244.765839 830.712341,225.678101   C869.186768,198.922195 907.528809,171.946320 946.636292,146.138565   C987.407288,119.232994 1028.525879,92.777458 1070.432861,67.696083   C1099.853516,50.087757 1130.567993,34.547668 1161.270752,19.217787   C1174.950928,12.387344 1190.026245,8.352017 1204.460083,3.026162   C1205.334595,2.703504 1206.137573,2.186890 1206.986816,1.380265   C1219.020874,1.000000 1231.041870,1.000000 1243.531372,1.000000   C1246.678589,2.169549 1249.324951,3.420557 1252.041138,4.494945   C1265.883179,9.970009 1280.124756,14.600866 1293.522217,21.001310   C1327.497314,37.232388 1360.812988,54.762196 1392.725220,74.847481   C1419.352539,91.606552 1446.273682,107.907326 1472.695801,124.981995   C1499.959839,142.600861 1527.072144,160.486771 1553.726318,179.010330   C1599.123901,210.559647 1644.309448,242.423355 1689.214355,274.669952   C1732.765503,305.944550 1775.941650,337.744415 1819.116089,369.539642   C1862.821411,401.725891 1906.432617,434.042572 1949.873291,466.584686   C1977.153809,487.020905 2004.080444,507.930756 2031.099243,528.714661   C2056.018066,547.883057 2080.893799,567.108032 2105.705078,586.415283   C2134.958008,609.178955 2164.153809,632.016235 2193.313965,654.898743   C2221.561523,677.065125 2249.764648,699.288818 2277.927979,721.562317   C2304.148193,742.299011 2330.291260,763.133484 2356.467041,783.926697   C2377.325928,800.496521 2398.270264,816.960693 2419.000244,833.690369   C2428.133789,841.061340 2436.830078,848.974243 2445.385986,857.085632   C2440.015625,854.960510 2434.984375,852.390869 2429.844482,849.510986   C2428.906982,848.197876 2428.263916,846.904419 2427.220459,846.237122   C2416.538818,839.406433 2405.792236,832.677612 2394.864258,825.683777   C2393.787598,824.928772 2392.910156,824.410339 2391.840332,823.657715   C2390.785889,822.922607 2389.924316,822.421570 2388.822510,821.699280   C2387.064453,820.628174 2385.546875,819.778259 2384.026367,818.955322   C2384.023682,818.982239 2384.069336,818.945251 2383.858887,818.682007   C2382.312500,817.422058 2381.040039,816.323669 2379.631104,815.443542   C2335.292725,787.749878 2291.072266,759.863892 2246.561768,732.449585   C2172.564941,686.874634 2098.558838,641.309509 2024.216187,596.302979   C1968.672729,562.677368 1912.746582,529.675293 1856.706299,496.882050   C1806.124634,467.283173 1755.323853,438.048706 1704.309204,409.202698   C1658.377441,383.230713 1612.234619,357.613403 1565.792480,332.567505   C1525.932983,311.071503 1485.731689,290.180756 1445.277710,269.825043   C1416.285034,255.236481 1386.746094,241.709961 1357.230713,228.190140   C1326.033447,213.899963 1294.406128,200.584930 1261.168335,191.654373   C1245.093506,187.335327 1228.928345,183.714493 1211.976929,186.708420   C1186.718872,191.169418 1162.687012,199.566132 1139.037964,209.065506   C1081.807495,232.053848 1026.136963,258.446503 971.592957,287.199371   C930.649231,308.782837 889.743408,330.445435 849.068726,352.529510   C811.909546,372.704865 774.862305,393.107086 738.160950,414.100281   C679.203674,447.823853 620.436829,481.886200 561.843933,516.239380   C511.433838,545.795044 461.244476,575.733582 411.204285,605.911987   C358.169373,637.896484 305.248352,670.077515 252.597946,702.689880   C180.842682,747.136047 109.367630,792.034973 37.845932,836.857117   C30.977774,841.161377 24.628653,846.293884 17.943758,851.284851   C17.566145,851.963013 17.283356,852.398193 16.684298,853.000488   C14.469522,854.115723 12.469252,854.906494 10.697721,856.051208   C8.370831,857.554810 6.224147,859.337341 3.999990,861.000000   C2.731102,860.736694 0.387769,862.085022 1.000012,858.500000  z"
   id="path6" />
<path
   fill="#2CAC16"
   opacity="1.000000"
   stroke="none"
   d=" M2429.952881,849.821167   C2434.984375,852.390869 2440.015625,854.960510 2445.420410,857.434448   C2445.793945,857.338684 2445.935547,857.184998 2445.650635,857.382385   C2445.541992,857.996338 2445.718506,858.412903 2445.895020,858.829468   C2439.675293,857.425903 2433.375000,856.306213 2427.248291,854.573914   C2376.984863,840.362671 2326.805176,825.853760 2276.498291,811.799500   C2228.094727,798.277039 2179.602783,785.068542 2131.089355,771.944946   C2084.478027,759.335876 2037.861938,746.732178 1991.117188,734.631226   C1925.283569,717.588623 1859.361572,700.884460 1793.411865,684.295776   C1765.542114,677.285522 1737.564453,670.678406 1709.530762,664.353333   C1673.808228,656.293640 1638.004883,648.585327 1602.188965,640.947388   C1565.893066,633.206909 1529.596802,625.446472 1493.190430,618.252869   C1469.821777,613.635376 1446.259033,609.996094 1422.773193,605.977539   C1407.062988,603.289551 1391.375122,600.428162 1375.604126,598.151123   C1359.150635,595.775574 1342.627441,593.846924 1326.101807,592.018982   C1309.226685,590.152283 1292.337036,588.288879 1275.407227,587.074646   C1255.927734,585.677612 1236.393311,584.165894 1216.889771,584.254456   C1200.427979,584.329163 1183.971436,586.566467 1167.521240,587.948914   C1156.508667,588.874451 1145.492188,589.811462 1134.512085,591.050049   C1123.394775,592.304260 1112.309937,593.863831 1101.229370,595.421326   C1088.530029,597.206360 1075.840942,599.069946 1063.166260,601.022034   C1050.329834,602.999207 1037.485840,604.954346 1024.699951,607.227722   C1005.296326,610.677673 985.916382,614.271851 966.569580,618.027710   C940.771362,623.035828 914.979370,628.087402 889.249329,633.431580   C858.540100,639.809814 827.866638,646.369568 797.239685,653.131653   C775.113403,658.016968 753.059387,663.239929 731.023926,668.524170   C683.429260,679.937561 635.812500,691.266479 588.307739,703.045593   C544.465698,713.916626 500.747498,725.288330 456.994995,736.518494   C424.063293,744.971252 391.116669,753.372620 358.262024,762.117432   C320.647614,772.129211 283.093018,782.370422 245.574829,792.737732   C193.646805,807.086975 141.755814,821.571594 89.891220,836.148560   C64.428017,843.305176 39.057735,850.792664 13.653363,858.157959   C11.675576,858.731323 9.760920,859.522522 7.908456,860.606201   C6.933331,861.000000 5.866662,861.000000 4.399987,861.000000   C6.224147,859.337341 8.370831,857.554810 10.697721,856.051208   C12.469252,854.906494 14.469522,854.115723 17.051210,853.040894   C35.193062,845.630615 52.579372,838.167297 70.125153,831.099792   C109.331902,815.307251 148.589279,799.639282 187.880707,784.058472   C222.583908,770.296997 257.304779,756.576660 292.121704,743.106506   C326.624359,729.757935 361.215210,716.634338 395.842926,703.613037   C438.321075,687.639587 480.819092,671.715088 523.419373,656.071411   C555.835632,644.167542 588.400452,632.665771 620.943970,621.111694   C655.038635,609.006897 689.063782,596.688049 723.345398,585.133484   C759.655334,572.895264 796.125061,561.104004 832.721008,549.749146   C869.595215,538.307922 906.549194,527.058228 943.764343,516.799011   C982.388855,506.151215 1021.304749,496.533295 1060.211792,486.946045   C1094.210938,478.568176 1128.469727,471.411011 1163.395508,467.906677   C1177.485229,466.492950 1191.514526,463.498260 1205.603271,463.280182   C1227.982544,462.933777 1250.465088,463.387512 1272.761108,465.230988   C1293.699951,466.962250 1314.571655,470.287567 1335.259155,474.078400   C1362.546387,479.078491 1389.743896,484.707001 1416.759766,491.009247   C1444.108032,497.389038 1471.278687,504.589752 1498.361816,512.032104   C1530.198242,520.780640 1561.918091,529.969727 1593.571777,539.361511   C1616.104980,546.047180 1638.567749,553.019043 1660.847290,560.501770   C1716.210083,579.095459 1771.543579,597.786133 1826.708740,616.955750   C1867.711548,631.204041 1908.511475,646.048401 1949.254395,661.028442   C1983.203735,673.510681 2016.980103,686.468384 2050.757812,699.411865   C2089.147461,714.122498 2127.490723,728.955139 2165.784668,743.912903   C2202.395752,758.213318 2238.959961,772.636169 2275.464355,787.206726   C2302.352051,797.938782 2329.106689,809.004639 2355.927979,819.903748   C2371.775879,826.343689 2387.622559,832.786743 2403.502441,839.147095   C2408.660645,841.213135 2413.921875,843.021545 2419.078613,844.966187   C2419.021240,844.984619 2418.984131,844.869934 2419.122070,845.205688   C2420.839844,845.972046 2422.419922,846.402710 2424.302734,846.997803   C2426.387939,848.048584 2428.170410,848.934875 2429.952881,849.821167  z"
   id="path8" />
<path
   fill="#04207A"
   opacity="1.000000"
   stroke="none"
   d=" M2446.143066,858.729309   C2445.718506,858.412903 2445.541992,857.996338 2445.573975,857.311401   C2445.985107,857.571716 2446.188232,858.100403 2446.143066,858.729309  z"
   id="path10" />

<path
   fill="#044BA8"
   opacity="1.000000"
   stroke="none"
   d=" M2163.159180,698.322388   C2162.503174,698.079102 2161.847412,697.835815 2160.969727,696.996704   C2158.553711,695.380432 2156.359131,694.359924 2154.164551,693.339417   C2153.901855,693.236389 2153.643066,693.124268 2153.111328,692.622559   C2151.541260,691.531860 2150.248047,690.821472 2148.954834,690.111084   C2147.508301,689.458191 2146.062012,688.805176 2144.225098,687.697266   C2142.541260,686.531982 2141.248047,685.821594 2139.954834,685.111206   C2138.508301,684.458191 2137.062012,683.805176 2135.190918,682.656494   C2132.897217,681.214600 2131.028076,680.268494 2129.159180,679.322449   C2128.503418,679.079224 2127.847412,678.835999 2126.927246,678.024414   C2124.497559,676.409973 2122.332031,675.363892 2120.166504,674.317810   C2119.508545,674.076355 2118.850586,673.834839 2117.927734,673.024658   C2115.497559,671.409973 2113.332031,670.363892 2111.166504,669.317810   C2110.508545,669.076355 2109.850586,668.834839 2108.927734,668.024658   C2106.497559,666.409973 2104.332031,665.363892 2102.166504,664.317810   C2101.508545,664.076294 2100.850586,663.834839 2099.927734,663.024658   C2097.497559,661.409973 2095.332031,660.363892 2093.166504,659.317871   C2092.508545,659.076355 2091.850586,658.834900 2090.953613,658.054565   C2089.127930,656.714294 2087.541504,655.912720 2085.954834,655.111145   C2080.847168,652.462280 2075.739746,649.813416 2070.233398,646.703491   C2068.541260,645.531921 2067.248047,644.821594 2065.954834,644.111206   C2064.508301,643.458130 2063.061768,642.805054 2061.224854,641.697144   C2059.541260,640.531921 2058.248047,639.821533 2056.954834,639.111084   C2051.847168,636.462219 2046.739624,633.813354 2041.233154,630.703430   C2039.541138,629.531921 2038.247803,628.821411 2036.954590,628.110901   C2035.081299,627.302063 2033.207886,626.493225 2030.943848,625.159058   C2029.663818,624.103333 2028.774536,623.572815 2027.885376,623.042297   C2025.370117,621.924011 2022.854736,620.805786 2019.946289,619.160645   C2018.663818,618.103333 2017.774536,617.572815 2016.885376,617.042297   C2014.797729,616.080627 2012.709961,615.118958 2010.228271,613.699829   C2008.541138,612.531921 2007.247803,611.821411 2005.954590,611.110962   C1996.175659,606.026123 1986.341919,601.043030 1976.633057,595.827820   C1967.057373,590.684143 1957.666504,585.196899 1948.092529,580.049744   C1915.144287,562.335754 1882.167480,544.674927 1849.170044,527.052551   C1828.234619,515.872009 1807.281250,504.723755 1786.268555,493.689514   C1755.458740,477.510559 1724.732666,461.162659 1693.711792,445.396912   C1640.571655,418.389435 1587.293823,391.650787 1533.945068,365.057495   C1511.223511,353.731262 1488.316895,342.752136 1465.242798,332.163483   C1438.626709,319.949463 1411.994629,307.699951 1384.892578,296.633972   C1352.199097,283.284973 1319.218140,270.559540 1285.934204,258.771729   C1269.928467,253.103210 1253.125732,249.032440 1236.345093,246.392731   C1220.267578,243.863602 1204.220093,247.445602 1188.432983,251.688217   C1156.462769,260.279938 1125.643555,272.134735 1094.937500,284.236298   C1073.829956,292.555023 1053.076660,301.831848 1032.456543,311.314423   C998.322449,327.011658 964.388306,343.145905 930.441223,359.246368   C915.234802,366.458496 900.200928,374.034271 885.088806,381.445282   C867.011597,390.310303 848.846069,399.000610 830.877808,408.081268   C803.188538,422.074585 775.621216,436.309570 748.027344,450.491180   C727.044006,461.275360 706.040161,472.022308 685.152832,482.990326   C656.838379,497.858398 628.616150,512.902405 600.374329,527.908569   C582.040955,537.649902 563.706665,547.390686 545.437561,557.251709   C512.961121,574.781311 480.513367,592.364258 448.093536,609.998230   C427.694427,621.093750 407.312653,632.223450 387.022430,643.516357   C359.402679,658.888367 331.890472,674.453430 304.307953,689.892456   C284.196625,701.149597 263.999298,712.253784 243.924667,723.575684   C216.685257,738.938416 189.561111,754.505554 162.321564,769.868042   C142.246857,781.189758 121.975288,792.164246 101.957581,803.584717   C79.522797,816.383972 57.300148,829.554565 34.927628,842.463806   C29.656183,845.505432 24.153996,848.147217 18.398258,851.007385   C24.628653,846.293884 30.977774,841.161377 37.845932,836.857117   C109.367630,792.034973 180.842682,747.136047 252.597946,702.689880   C305.248352,670.077515 358.169373,637.896484 411.204285,605.911987   C461.244476,575.733582 511.433838,545.795044 561.843933,516.239380   C620.436829,481.886200 679.203674,447.823853 738.160950,414.100281   C774.862305,393.107086 811.909546,372.704865 849.068726,352.529510   C889.743408,330.445435 930.649231,308.782837 971.592957,287.199371   C1026.136963,258.446503 1081.807495,232.053848 1139.037964,209.065506   C1162.687012,199.566132 1186.718872,191.169418 1211.976929,186.708420   C1228.928345,183.714493 1245.093506,187.335327 1261.168335,191.654373   C1294.406128,200.584930 1326.033447,213.899963 1357.230713,228.190140   C1386.746094,241.709961 1416.285034,255.236481 1445.277710,269.825043   C1485.731689,290.180756 1525.932983,311.071503 1565.792480,332.567505   C1612.234619,357.613403 1658.377441,383.230713 1704.309204,409.202698   C1755.323853,438.048706 1806.124634,467.283173 1856.706299,496.882050   C1912.746582,529.675293 1968.672729,562.677368 2024.216187,596.302979   C2098.558838,641.309509 2172.564941,686.874634 2246.561768,732.449585   C2291.072266,759.863892 2335.292725,787.749878 2379.631104,815.443542   C2381.040039,816.323669 2382.312500,817.422058 2383.456543,818.677246   C2381.265869,818.283936 2379.092041,817.943481 2377.297852,816.930237   C2364.821533,809.884460 2352.503174,802.555725 2339.952148,795.648438   C2336.330078,793.655029 2332.111572,792.745117 2328.166504,791.338501   C2327.902832,791.236633 2327.643799,791.124817 2327.111816,790.622681   C2325.541260,789.531860 2324.247803,788.821350 2322.954590,788.110840   C2321.741455,787.631042 2320.528564,787.151367 2319.031738,786.036316   C2316.553711,784.380493 2314.359131,783.360046 2312.164551,782.339539   C2311.901855,782.236572 2311.643066,782.124390 2311.111328,781.622620   C2309.541260,780.531799 2308.247803,779.821289 2306.954590,779.110840   C2297.275635,773.864990 2287.550049,768.703430 2277.929932,763.352051   C2265.852539,756.634033 2253.861816,749.760986 2241.833984,742.954224   C2221.497559,731.445496 2201.162598,719.933716 2180.823242,708.429626   C2177.101562,706.324585 2173.361572,704.251038 2169.198242,701.661865   C2166.897217,700.214600 2165.028076,699.268494 2163.159180,698.322388  z"
   id="path14"
   style="stroke:#044ba8;stroke-opacity:1" />
<path
   fill="#044BA8"
   opacity="1.000000"
   stroke="none"
   d=" M2328.439209,791.593994   C2332.111572,792.745117 2336.330078,793.655029 2339.952148,795.648438   C2352.503174,802.555725 2364.821533,809.884460 2377.297852,816.930237   C2379.092041,817.943481 2381.265869,818.283936 2383.666748,818.940430   C2384.069336,818.945251 2384.023682,818.982239 2384.135986,819.268433   C2385.853027,820.343323 2387.458008,821.131958 2389.062744,821.920532   C2389.924316,822.421570 2390.785889,822.922607 2391.926025,823.922852   C2393.157715,824.921570 2394.110596,825.420898 2395.063721,825.920288   C2405.792236,832.677612 2416.538818,839.406433 2427.220459,846.237122   C2428.263916,846.904419 2428.906982,848.197876 2429.844482,849.510925   C2428.170410,848.934875 2426.387939,848.048584 2424.095703,846.708069   C2422.051758,845.792603 2420.518066,845.331299 2418.984131,844.869934   C2418.984131,844.869934 2419.021240,844.984619 2419.078613,844.966187   C2416.798828,843.158020 2414.626709,841.082275 2412.098877,839.622986   C2386.915039,825.083801 2361.673584,810.643982 2336.444336,796.183411   C2333.880859,794.714233 2331.290039,793.293030 2328.439209,791.593994  z"
   id="path16" />
<path
   fill="#044BA8"
   opacity="1.000000"
   stroke="none"
   d=" M2388.822510,821.699341   C2387.458008,821.131958 2385.853027,820.343323 2384.138672,819.241577   C2385.546875,819.778259 2387.064453,820.628174 2388.822510,821.699341  z"
   id="path18" />
<path
   fill="#044BA8"
   opacity="1.000000"
   stroke="none"
   d=" M2394.864258,825.683716   C2394.110596,825.420898 2393.157715,824.921570 2392.118652,824.157043   C2392.910156,824.410339 2393.787598,824.928772 2394.864258,825.683716  z"
   id="path20" />
<path
   fill="#000000"
   opacity="1.000000"
   stroke="none"
   d=" M2419.122070,845.205688   C2420.518066,845.331299 2422.051758,845.792603 2423.792725,846.543640   C2422.419922,846.402710 2420.839844,845.972046 2419.122070,845.205688  z"
   id="path22" />
<path
   fill="#044BA8"
   opacity="1.000000"
   stroke="none"
   d=" M2312.432617,782.593628   C2314.359131,783.360046 2316.553711,784.380493 2318.853027,785.757935   C2316.872070,785.025879 2314.786377,783.936768 2312.432617,782.593628  z"
   id="path24" />
<path
   fill="#044BA8"
   opacity="1.000000"
   stroke="none"
   d=" M2154.432617,693.593506   C2156.359131,694.359924 2158.553711,695.380432 2160.853027,696.757935   C2158.872314,696.025879 2156.786377,694.936768 2154.432617,693.593506  z"
   id="path26" />
<path
   fill="#044BA8"
   opacity="1.000000"
   stroke="none"
   d=" M2102.429688,664.579102   C2104.332031,665.363892 2106.497559,666.409973 2108.810547,667.785645   C2106.869873,667.023621 2104.781250,665.932007 2102.429688,664.579102  z"
   id="path28" />
<path
   fill="#044BA8"
   opacity="1.000000"
   stroke="none"
   d=" M2120.429688,674.579102   C2122.332031,675.363892 2124.497559,676.409973 2126.810547,677.785645   C2124.869873,677.023621 2122.781250,675.931946 2120.429688,674.579102  z"
   id="path30" />
<path
   fill="#044BA8"
   opacity="1.000000"
   stroke="none"
   d=" M2111.429688,669.579102   C2113.332031,670.363892 2115.497559,671.409973 2117.810547,672.785645   C2115.869873,672.023621 2113.781250,670.931946 2111.429688,669.579102  z"
   id="path32" />
<path
   fill="#044BA8"
   opacity="1.000000"
   stroke="none"
   d=" M2093.429688,659.579102   C2095.332031,660.363892 2097.497559,661.409973 2099.810547,662.785645   C2097.869873,662.023560 2095.781250,660.931946 2093.429688,659.579102  z"
   id="path34" />
<path
   fill="#044BA8"
   opacity="1.000000"
   stroke="none"
   d=" M2086.109131,655.409424   C2087.541504,655.912720 2089.127930,656.714294 2090.836426,657.815552   C2089.393311,657.312744 2087.828369,656.510193 2086.109131,655.409424  z"
   id="path36" />
<path
   fill="#044BA8"
   opacity="1.000000"
   stroke="none"
   d=" M2129.412109,679.580078   C2131.028076,680.268494 2132.897217,681.214600 2134.883301,682.497009   C2133.222168,681.834778 2131.443604,680.836304 2129.412109,679.580078  z"
   id="path38" />
<path
   fill="#044BA8"
   opacity="1.000000"
   stroke="none"
   d=" M2163.412109,698.580078   C2165.028076,699.268494 2166.897217,700.214600 2168.883301,701.497009   C2167.222168,700.834839 2165.443604,699.836304 2163.412109,698.580078  z"
   id="path40" />
<path
   fill="#044BA8"
   opacity="1.000000"
   stroke="none"
   d=" M2066.095703,644.396545   C2067.248047,644.821594 2068.541260,645.531921 2069.917480,646.537842   C2068.745850,646.116211 2067.490967,645.399048 2066.095703,644.396545  z"
   id="path42" />
<path
   fill="#044BA8"
   opacity="1.000000"
   stroke="none"
   d=" M2006.095459,611.396423   C2007.247803,611.821411 2008.541138,612.531921 2009.917480,613.537964   C2008.745850,613.116211 2007.491089,612.399048 2006.095459,611.396423  z"
   id="path44" />
<path
   fill="#044BA8"
   opacity="1.000000"
   stroke="none"
   d=" M2323.095459,788.396240   C2324.247803,788.821350 2325.541260,789.531860 2326.917480,790.537842   C2325.745850,790.116150 2324.490967,789.398926 2323.095459,788.396240  z"
   id="path46" />
<path
   fill="#044BA8"
   opacity="1.000000"
   stroke="none"
   d=" M2307.095459,779.396240   C2308.247803,779.821289 2309.541260,780.531799 2310.917480,781.537842   C2309.745850,781.116211 2308.490967,780.398987 2307.095459,779.396240  z"
   id="path48" />
<path
   fill="#044BA8"
   opacity="1.000000"
   stroke="none"
   d=" M2149.095703,690.396545   C2150.248047,690.821472 2151.541260,691.531860 2152.917480,692.537842   C2151.745850,692.116272 2150.490967,691.399170 2149.095703,690.396545  z"
   id="path50" />
<path
   fill="#044BA8"
   opacity="1.000000"
   stroke="none"
   d=" M2140.095703,685.396606   C2141.248047,685.821594 2142.541260,686.531982 2143.917480,687.537842   C2142.745850,687.116211 2141.490967,686.399109 2140.095703,685.396606  z"
   id="path52" />
<path
   fill="#044BA8"
   opacity="1.000000"
   stroke="none"
   d=" M2037.095459,628.396362   C2038.247803,628.821411 2039.541138,629.531921 2040.917480,630.537842   C2039.745850,630.116211 2038.491089,629.399048 2037.095459,628.396362  z"
   id="path54" />
<path
   fill="#044BA8"
   opacity="1.000000"
   stroke="none"
   d=" M2057.095703,639.396606   C2058.248047,639.821533 2059.541260,640.531921 2060.917480,641.537842   C2059.745850,641.116272 2058.490967,640.399109 2057.095703,639.396606  z"
   id="path56" />
<path
   fill="#044BA8"
   opacity="1.000000"
   stroke="none"
   d=" M2028.034424,623.333496   C2028.774536,623.572815 2029.663818,624.103333 2030.755859,624.874756   C2030.033569,624.618713 2029.108398,624.121765 2028.034424,623.333496  z"
   id="path58" />
<path
   fill="#044BA8"
   opacity="1.000000"
   stroke="none"
   d=" M2017.034424,617.333496   C2017.774536,617.572815 2018.663818,618.103333 2019.755859,618.874756   C2019.033569,618.618774 2018.108398,618.121765 2017.034424,617.333496  z"
   id="path60" />
</svg>
