<?xml version="1.0" encoding="UTF-8" standalone="no"?>
<svg
   version="1.1"
   id="Layer_1"
   x="0px"
   y="0px"
   width="400"
   viewBox="0 0 400 140"
   enable-background="new 0 0 2449 860"
   xml:space="preserve"
   sodipodi:docname="IAA-Logo-2022a.svg"
   inkscape:version="1.1.1 (3bf5ae0d25, 2021-09-20)"
   height="140"
   xmlns:inkscape="http://www.inkscape.org/namespaces/inkscape"
   xmlns:sodipodi="http://sodipodi.sourceforge.net/DTD/sodipodi-0.dtd"
   xmlns="http://www.w3.org/2000/svg"
   xmlns:svg="http://www.w3.org/2000/svg"><defs
   id="defs65" /><sodipodi:namedview
   id="namedview63"
   pagecolor="#ffffff"
   bordercolor="#666666"
   borderopacity="1.0"
   inkscape:pageshadow="2"
   inkscape:pageopacity="0.0"
   inkscape:pagecheckerboard="0"
   showgrid="false"
   inkscape:zoom="2.8919483"
   inkscape:cx="307.23232"
   inkscape:cy="209.02863"
   inkscape:window-width="3200"
   inkscape:window-height="1711"
   inkscape:window-x="-9"
   inkscape:window-y="-9"
   inkscape:window-maximized="1"
   inkscape:current-layer="Layer_1"
   width="400px" />


<path
   fill="#04207a"
   opacity="1"
   stroke="none"
   d="m 4.3737668,138.93917 c 0.8274813,-0.72075 1.6621427,-1.35246 2.4811328,-2.00384 2.7366915,-2.1767 5.4662044,-4.36242 8.2014784,-6.5409 2.506681,-1.99643 5.01366,-3.99251 7.52719,-5.98031 2.347678,-1.85664 4.705727,-3.70017 7.056329,-5.55312 2.683118,-2.11505 5.362509,-4.23483 8.044498,-6.35132 2.391143,-1.88696 4.78125,-3.77525 7.1761,-5.65752 3.102728,-2.43865 6.204512,-4.87854 9.316636,-7.305184 2.151677,-1.67774 4.321194,-3.33259 6.480903,-5.000053 3.458827,-2.670476 6.911206,-5.349315 10.375723,-8.012376 2.49925,-1.921097 5.010892,-3.826113 7.522153,-5.731519 4.346522,-3.297902 8.687212,-6.603617 13.048411,-9.88201 5.166469,-3.883721 10.334019,-7.766443 15.534259,-11.604664 5.62663,-4.152943 11.27588,-8.275706 16.94479,-12.370764 4.33772,-3.13344 8.69726,-6.237953 13.09042,-9.293051 6.15804,-4.28243 12.29489,-8.600066 18.55426,-12.73074 6.52562,-4.306384 13.10688,-8.540738 19.81433,-12.555149 4.70893,-2.8183095 9.62495,-5.3055861 14.5391,-7.7592178 2.18958,-1.0932499 4.60246,-1.7391262 6.91269,-2.5915585 0.13997,-0.051643 0.26849,-0.1343301 0.40441,-0.2634349 1.92613,-0.060863 3.85015,-0.060863 5.84917,-0.060863 0.50372,0.1871927 0.92729,0.3874234 1.36202,0.5593851 2.2155,0.8763141 4.49495,1.6175082 6.63928,2.6419345 5.4379,2.5978732 10.77026,5.4036156 15.87798,8.6183756 4.26185,2.682381 8.57073,5.291411 12.79974,8.024303 4.36375,2.819997 8.70322,5.682735 12.96937,8.647532 7.26614,5.049642 14.49833,10.149603 21.68562,15.310848 6.97059,5.005672 13.88118,10.095414 20.79148,15.184415 6.99527,5.151586 13.97548,10.324049 20.92841,15.532595 4.36639,3.270928 8.67614,6.617665 13.00065,9.944243 3.98841,3.068006 7.9699,6.145069 11.94108,9.235301 4.68209,3.643448 9.35504,7.298692 14.02229,10.961162 4.52117,3.54785 9.03523,7.10487 13.54293,10.66987 4.19669,3.31902 8.38104,6.65369 12.5706,9.98176 3.33858,2.65209 6.69085,5.28727 10.00878,7.96495 1.46189,1.17976 2.85378,2.44627 4.2232,3.74454 -0.85957,-0.34014 -1.66484,-0.75142 -2.48751,-1.21236 -0.15005,-0.21017 -0.25298,-0.4172 -0.41998,-0.52401 -1.70967,-1.09328 -3.42972,-2.17027 -5.17879,-3.28967 -0.17233,-0.12084 -0.31276,-0.20382 -0.48401,-0.32428 -0.16876,-0.11766 -0.30666,-0.19785 -0.48301,-0.31346 -0.28138,-0.17144 -0.52428,-0.30747 -0.76764,-0.43919 0,0.004 0.007,-0.002 -0.0268,-0.0437 -0.24751,-0.20166 -0.45118,-0.37747 -0.67669,-0.51834 -7.0966,-4.43252 -14.17432,-8.89583 -21.29847,-13.28364 -11.84362,-7.29456 -23.6887,-14.58751 -35.58764,-21.791052 -8.89005,-5.381963 -17.84133,-10.664127 -26.81088,-15.912866 -8.09588,-4.737463 -16.22681,-9.416599 -24.392,-14.033561 -7.35163,-4.15696 -14.73704,-8.257151 -22.17036,-12.265885 -6.37973,-3.440553 -12.81417,-6.784231 -19.28905,-10.042275 -4.64044,-2.33498 -9.36831,-4.499973 -14.09241,-6.663895 -4.9933,-2.287222 -10.05542,-4.418365 -15.37531,-5.847751 -2.57286,-0.691286 -5.16019,-1.270821 -7.87336,-0.791626 -4.04268,0.714007 -7.88912,2.057947 -11.67427,3.578375 -9.16005,3.67941 -18.07042,7.903699 -26.8005,12.505754 -6.55326,3.454552 -13.10047,6.921769 -19.61067,10.456447 -5.94753,3.229176 -11.87715,6.494665 -17.7514,9.85474 -9.43644,5.397643 -18.84239,10.849509 -28.220513,16.347924 -8.068412,4.730546 -16.101495,9.522374 -24.110702,14.352597 -8.488531,5.119294 -16.958831,10.270044 -25.385816,15.489834 -11.484826,7.11385 -22.9248,14.30017 -34.37224,21.4742 -1.0992869,0.68892 -2.1154984,1.51041 -3.1854525,2.30924 -0.060439,0.10854 -0.105701,0.1782 -0.2015835,0.2746 -0.3544871,0.1785 -0.6746413,0.30506 -0.9581846,0.48828 -0.3724315,0.24066 -0.7160201,0.52597 -1.0720086,0.79208 -0.2030925,-0.0421 -0.5781559,0.17367 -0.480163,-0.40013 z"
   id="path6"
   style="stroke-width:0.160055" />
<path
   fill="#2cac16"
   opacity="1"
   stroke="none"
   d="m 393.14102,137.55007 c 0.80532,0.4113 1.61059,0.82258 2.47566,1.21855 0.0598,-0.0153 0.0824,-0.0399 0.0369,-0.008 -0.0174,0.0983 0.0109,0.16494 0.0391,0.23161 -0.9955,-0.22464 -2.0039,-0.40386 -2.98451,-0.68112 -8.04493,-2.27459 -16.07647,-4.59682 -24.12837,-6.84628 -7.74726,-2.16434 -15.50865,-4.27844 -23.27349,-6.37894 -7.46041,-2.01815 -14.92157,-4.03544 -22.40332,-5.97227 -10.53703,-2.72776 -21.08821,-5.40135 -31.64382,-8.05646 -4.46071,-1.12203 -8.93868,-2.17954 -13.42563,-3.1919 -5.7176,-1.29 -11.44811,-2.52375 -17.18065,-3.74625 -5.80935,-1.23891 -11.61878,-2.48101 -17.44582,-3.63238 -3.74027,-0.739064 -7.51163,-1.321554 -11.27066,-1.964744 -2.5145,-0.43022 -5.02544,-0.88821 -7.54967,-1.252658 -2.63348,-0.38022 -5.27811,-0.688911 -7.92312,-0.981483 -2.70095,-0.298776 -5.40424,-0.597023 -8.11395,-0.791367 -3.1178,-0.223604 -6.24439,-0.465563 -9.36603,-0.451387 -2.6348,0.01196 -5.26877,0.37005 -7.90171,0.591317 -1.76262,0.148138 -3.52587,0.298111 -5.28329,0.496354 -1.77939,0.200744 -3.55359,0.450361 -5.32708,0.699648 -2.03261,0.285704 -4.06357,0.583981 -6.09221,0.896426 -2.05455,0.31645 -4.1103,0.62939 -6.15674,0.99325 -3.10567,0.55218 -6.20753,1.12745 -9.3041,1.728604 -4.12914,0.80158 -8.25729,1.61011 -12.37553,2.46547 -4.91518,1.02087 -9.82463,2.0708 -14.72665,3.15311 -3.54143,0.78192 -7.07129,1.61788 -10.59819,2.46366 -7.61779,1.82677 -15.23911,3.64003 -22.842515,5.52534 -7.01716,1.73997 -14.014498,3.56007 -21.017326,5.35752 -5.270901,1.35291 -10.544188,2.6976 -15.802756,4.09725 -6.020393,1.60244 -12.031211,3.2416 -18.036203,4.90095 -8.311367,2.29667 -16.616805,4.61502 -24.918017,6.94814 -4.075526,1.14546 -8.136179,2.34387 -12.2022878,3.52273 -0.3165557,0.0918 -0.6230069,0.2184 -0.919504,0.39185 -0.1560741,0.063 -0.3268003,0.063 -0.5615497,0.063 0.2919668,-0.26611 0.6355554,-0.55142 1.0079869,-0.79208 0.2835433,-0.18322 0.6036975,-0.30978 1.0169108,-0.48181 2.9037029,-1.18606 5.6864778,-2.3806 8.4947758,-3.5118 6.275255,-2.52768 12.558615,-5.03543 18.847424,-7.52922 5.554438,-2.2026 11.111704,-4.39861 16.684343,-6.55459 5.52234,-2.13651 11.058796,-4.23701 16.601153,-6.32114 6.798859,-2.55664 13.600901,-5.10545 20.41931,-7.6093 5.1884,-1.90528 10.400579,-3.7462 15.609355,-5.5955 5.45703,-1.937444 10.90295,-3.90914 16.38991,-5.758512 5.8116,-1.958795 11.64878,-3.846051 17.50617,-5.663457 5.90192,-1.831231 11.8166,-3.631806 17.77309,-5.273851 6.18207,-1.704239 12.41076,-3.24364 18.63806,-4.77813 5.44174,-1.340924 10.92505,-2.486468 16.51511,-3.047356 2.25514,-0.226275 4.5006,-0.705592 6.75559,-0.740496 3.58192,-0.05544 7.18038,0.01718 10.74898,0.312237 3.35139,0.277098 6.69202,0.809334 10.00316,1.416077 4.36747,0.800292 8.72058,1.701166 13.04462,2.709876 4.37723,1.02112 8.72605,2.173633 13.06085,3.364822 5.09559,1.400252 10.17254,2.871016 15.23888,4.374222 3.60657,1.070079 7.20185,2.185963 10.76782,3.383615 8.86112,2.976022 17.71755,5.967567 26.54703,9.035773 6.56272,2.28052 13.09298,4.65644 19.61411,7.05408 5.43377,1.99785 10.83987,4.0718 16.24618,6.14348 6.14448,2.35451 12.28152,4.72856 18.41068,7.12263 5.85981,2.28886 11.71211,4.59732 17.55484,6.92942 4.30353,1.71772 8.58575,3.48887 12.87864,5.23333 2.53655,1.03075 5.0729,2.062 7.61455,3.08001 0.82559,0.33068 1.66769,0.62012 2.49305,0.93138 -0.009,0.003 -0.015,-0.0154 0.007,0.0383 0.27492,0.12266 0.52783,0.19159 0.82918,0.28684 0.33375,0.16818 0.61905,0.31004 0.90434,0.45189 z"
   id="path8"
   style="stroke-width:0.160055" />
<path
   fill="#04207a"
   opacity="1"
   stroke="none"
   d="m 395.73235,138.97587 c -0.0679,-0.0506 -0.0962,-0.11732 -0.0911,-0.22695 0.0658,0.0417 0.0983,0.12629 0.0911,0.22695 z"
   id="path10"
   style="stroke-width:0.160055" />

<path
   fill="#044ba8"
   opacity="1"
   stroke="none"
   d="m 350.43923,113.30186 c -0.105,-0.0389 -0.20996,-0.0779 -0.35044,-0.21218 -0.3867,-0.2587 -0.73796,-0.42204 -1.0892,-0.58537 -0.042,-0.0165 -0.0835,-0.0344 -0.16858,-0.11474 -0.25129,-0.17457 -0.45829,-0.28827 -0.66528,-0.40198 -0.23152,-0.10449 -0.463,-0.20901 -0.75701,-0.38634 -0.2695,-0.18651 -0.4765,-0.30021 -0.68348,-0.41391 -0.23152,-0.10452 -0.46301,-0.20904 -0.76249,-0.39289 -0.36712,-0.23079 -0.66628,-0.38222 -0.96541,-0.53364 -0.10496,-0.0389 -0.20996,-0.0778 -0.35724,-0.20775 -0.38887,-0.2584 -0.73549,-0.42583 -1.08209,-0.59327 -0.10532,-0.0386 -0.21062,-0.0773 -0.35833,-0.20697 -0.38895,-0.25844 -0.73557,-0.42587 -1.08217,-0.5933 -0.10532,-0.0387 -0.21062,-0.0773 -0.35833,-0.20698 -0.38895,-0.25844 -0.73557,-0.42587 -1.08217,-0.5933 -0.10532,-0.0387 -0.21062,-0.0773 -0.35833,-0.20698 -0.38895,-0.25844 -0.73557,-0.42587 -1.08217,-0.59329 -0.10532,-0.0387 -0.21062,-0.0773 -0.35419,-0.2022 -0.29221,-0.21452 -0.54612,-0.34281 -0.80008,-0.47111 -0.8175,-0.42396 -1.63498,-0.84793 -2.5163,-1.34569 -0.27083,-0.18752 -0.47783,-0.30121 -0.68481,-0.41491 -0.23152,-0.10453 -0.46304,-0.20906 -0.75705,-0.38638 -0.26947,-0.1865 -0.47647,-0.3002 -0.68345,-0.41392 -0.8175,-0.42396 -1.635,-0.84793 -2.51633,-1.34569 -0.27083,-0.1875 -0.47783,-0.30122 -0.68481,-0.41495 -0.29983,-0.12945 -0.59968,-0.25891 -0.96206,-0.47245 -0.20488,-0.16898 -0.34721,-0.25389 -0.48952,-0.3388 -0.40259,-0.17899 -0.80519,-0.35797 -1.27069,-0.62128 -0.20528,-0.16923 -0.34761,-0.25415 -0.48992,-0.33906 -0.33415,-0.15392 -0.66829,-0.307844 -1.0655,-0.534984 -0.27005,-0.18693 -0.47705,-0.30065 -0.68403,-0.41436 -1.56517,-0.81386 -3.13912,-1.61143 -4.69307,-2.44615 -1.53264,-0.823275 -3.03571,-1.701538 -4.56808,-2.525369 -5.27354,-2.835221 -10.55166,-5.661933 -15.83309,-8.482491 -3.35083,-1.789507 -6.70452,-3.573847 -10.06771,-5.339938 -4.9313,-2.58953 -9.84916,-5.206101 -14.81423,-7.729496 -8.50536,-4.322696 -17.03278,-8.602362 -25.57154,-12.858764 -3.63671,-1.812827 -7.30304,-3.570095 -10.99618,-5.264869 -4.26005,-1.954921 -8.52266,-3.915522 -12.86049,-5.686693 -5.23277,-2.136581 -10.51156,-4.173356 -15.83883,-6.060059 -2.5618,-0.907278 -5.25118,-1.558827 -7.93701,-1.981327 -2.57329,-0.404802 -5.14178,0.168517 -7.6686,0.847572 -5.117,1.375152 -10.04978,3.272576 -14.96446,5.209499 -3.37838,1.331457 -6.70006,2.816264 -10.00043,4.334002 -5.46334,2.512429 -10.89469,5.094805 -16.32811,7.671772 -2.43387,1.154341 -4.84012,2.366884 -7.2589,3.553057 -2.89336,1.418895 -5.80085,2.809827 -8.67677,4.263237 -4.43182,2.239707 -8.84412,4.518094 -13.26067,6.787939 -3.3585,1.726067 -6.72028,3.446175 -10.06341,5.201667 -4.53189,2.379717 -9.04901,4.787593 -13.56927,7.189411 -2.934358,1.559154 -5.868862,3.118221 -8.792933,4.696531 -5.198033,2.805709 -10.391473,5.619957 -15.580445,8.442369 -3.26499,1.775904 -6.527206,3.557274 -9.774767,5.364764 -4.420693,2.46038 -8.824173,4.95165 -13.238907,7.42275 -3.218929,1.80177 -6.451621,3.57906 -9.664676,5.39119 -4.359817,2.45889 -8.701186,4.95049 -13.061026,7.40934 -3.213066,1.81211 -6.457642,3.56863 -9.661586,5.39654 -3.590811,2.04859 -7.147667,4.15662 -10.7285119,6.22282 -0.8437237,0.48682 -1.7243789,0.90966 -2.6456164,1.36744 0.9972089,-0.75442 2.0134204,-1.57591 3.1127073,-2.26483 11.44744,-7.17403 22.887414,-14.36035 34.37224,-21.4742 8.426985,-5.21979 16.897285,-10.37054 25.385816,-15.489834 8.009207,-4.830224 16.04229,-9.622052 24.110702,-14.352598 9.378123,-5.498415 18.784073,-10.950281 28.220513,-16.347924 5.87425,-3.360075 11.80387,-6.625564 17.7514,-9.85474 6.5102,-3.534678 13.05741,-7.001895 19.61067,-10.456447 8.73008,-4.602055 17.64045,-8.826344 26.8005,-12.505754 3.78515,-1.520428 7.63159,-2.864368 11.67427,-3.578375 2.71317,-0.479195 5.3005,0.10034 7.87336,0.791626 5.31989,1.429386 10.38201,3.560529 15.37531,5.847751 4.7241,2.163922 9.45197,4.328915 14.09241,6.663895 6.47488,3.258044 12.90932,6.601722 19.28905,10.042275 7.43332,4.008734 14.81873,8.108925 22.17036,12.265885 8.16519,4.616962 16.29612,9.296098 24.392,14.033561 8.96955,5.248739 17.92083,10.530903 26.81088,15.912866 11.89894,7.203543 23.74402,14.496493 35.58763,21.791013 7.12415,4.38781 14.20187,8.85112 21.29847,13.28364 0.22551,0.14087 0.42918,0.31668 0.61228,0.51758 -0.35062,-0.063 -0.69856,-0.11745 -0.98572,-0.27962 -1.99691,-1.12772 -3.96853,-2.30072 -5.9774,-3.40627 -0.57972,-0.31906 -1.25491,-0.46469 -1.88635,-0.68983 -0.0422,-0.0163 -0.0837,-0.0342 -0.16881,-0.11457 -0.25137,-0.17459 -0.4584,-0.28831 -0.66538,-0.40204 -0.19416,-0.0768 -0.3883,-0.15356 -0.62788,-0.33203 -0.39662,-0.26503 -0.74788,-0.42836 -1.09912,-0.59169 -0.0421,-0.0165 -0.0835,-0.0344 -0.16859,-0.11475 -0.25128,-0.17459 -0.45832,-0.28831 -0.6653,-0.40203 -1.54918,-0.83962 -3.10581,-1.66576 -4.64556,-2.52228 -1.93306,-1.07525 -3.85223,-2.17532 -5.77735,-3.26478 -3.25495,-1.84203 -6.50968,-3.68456 -9.76511,-5.52585 -0.59567,-0.33693 -1.19427,-0.66881 -1.86065,-1.08322 -0.36829,-0.23164 -0.66745,-0.38307 -0.96657,-0.5345 z"
   id="path14"
   style="stroke:#044ba8;stroke-width:0.160055;stroke-opacity:1" />
<path
   fill="#044ba8"
   opacity="1"
   stroke="none"
   d="m 376.8932,128.23049 c 0.58779,0.18425 1.26298,0.32988 1.8427,0.64894 2.00887,1.10555 3.98049,2.27855 5.9774,3.40627 0.28716,0.16217 0.6351,0.21666 1.01936,0.32174 0.0644,8e-4 0.0571,0.007 0.0751,0.0525 0.27481,0.17204 0.5317,0.29827 0.78854,0.42448 0.13791,0.0802 0.27581,0.16039 0.45829,0.32048 0.19714,0.15985 0.34966,0.23977 0.50221,0.3197 1.71715,1.08155 3.4372,2.15854 5.14687,3.25182 0.167,0.10681 0.26993,0.31384 0.41998,0.524 -0.26794,-0.0922 -0.55324,-0.23406 -0.92012,-0.44862 -0.32714,-0.14652 -0.57262,-0.22036 -0.81814,-0.2942 0,0 0.006,0.0184 0.015,0.0154 -0.36489,-0.28941 -0.71255,-0.62164 -1.11714,-0.85521 -4.03082,-2.32707 -8.07084,-4.63825 -12.10893,-6.95274 -0.41029,-0.23515 -0.82497,-0.46262 -1.28126,-0.73456 z"
   id="path16"
   style="stroke-width:0.160055" />
<path
   fill="#044ba8"
   opacity="1"
   stroke="none"
   d="m 386.55788,133.04902 c -0.2184,-0.0908 -0.47529,-0.21704 -0.74967,-0.39338 0.22539,0.0859 0.46829,0.22193 0.74967,0.39338 z"
   id="path18"
   style="stroke-width:0.160055" />
<path
   fill="#044ba8"
   opacity="1"
   stroke="none"
   d="m 387.5249,133.68674 c -0.12063,-0.0421 -0.27315,-0.12199 -0.43945,-0.24435 0.12669,0.0405 0.26712,0.12352 0.43945,0.24435 z"
   id="path20"
   style="stroke-width:0.160055" />
<path
   fill="#000000"
   opacity="1"
   stroke="none"
   d="m 391.4075,136.81134 c 0.22343,0.0201 0.46891,0.0939 0.74755,0.21414 -0.21972,-0.0225 -0.47263,-0.0915 -0.74755,-0.21414 z"
   id="path22"
   style="stroke-width:0.160055" />
<path
   fill="#044ba8"
   opacity="1"
   stroke="none"
   d="m 374.33125,126.78993 c 0.30835,0.12267 0.65961,0.286 1.02763,0.50647 -0.31706,-0.11717 -0.65089,-0.29149 -1.02763,-0.50647 z"
   id="path24"
   style="stroke-width:0.160055" />
<path
   fill="#044ba8"
   opacity="1"
   stroke="none"
   d="m 349.04249,112.54498 c 0.30834,0.12266 0.6596,0.286 1.02762,0.50648 -0.31702,-0.11717 -0.65088,-0.29149 -1.02762,-0.50648 z"
   id="path26"
   style="stroke-width:0.160055" />
<path
   fill="#044ba8"
   opacity="1"
   stroke="none"
   d="m 340.71914,107.90106 c 0.30447,0.12561 0.65109,0.29304 1.02128,0.51323 -0.3106,-0.12197 -0.6449,-0.29669 -1.02128,-0.51323 z"
   id="path28"
   style="stroke-width:0.160055" />
<path
   fill="#044ba8"
   opacity="1"
   stroke="none"
   d="m 343.60014,109.50162 c 0.30447,0.12561 0.65109,0.29304 1.02128,0.51322 -0.31061,-0.12197 -0.6449,-0.29669 -1.02128,-0.51322 z"
   id="path30"
   style="stroke-width:0.160055" />
<path
   fill="#044ba8"
   opacity="1"
   stroke="none"
   d="m 342.15964,108.70134 c 0.30447,0.12561 0.65109,0.29304 1.02128,0.51322 -0.31061,-0.12196 -0.6449,-0.29669 -1.02128,-0.51322 z"
   id="path32"
   style="stroke-width:0.160055" />
<path
   fill="#044ba8"
   opacity="1"
   stroke="none"
   d="m 339.27864,107.10078 c 0.30447,0.12561 0.65109,0.29304 1.02128,0.51323 -0.3106,-0.12198 -0.6449,-0.2967 -1.02128,-0.51323 z"
   id="path34"
   style="stroke-width:0.160055" />
<path
   fill="#044ba8"
   opacity="1"
   stroke="none"
   d="m 338.10694,106.4334 c 0.22926,0.0806 0.48317,0.20885 0.75663,0.38512 -0.23098,-0.0805 -0.48145,-0.20893 -0.75663,-0.38512 z"
   id="path36"
   style="stroke-width:0.160055" />
<path
   fill="#044ba8"
   opacity="1"
   stroke="none"
   d="m 345.03782,110.30205 c 0.25865,0.11018 0.55781,0.26161 0.87569,0.46687 -0.26586,-0.10599 -0.55054,-0.26581 -0.87569,-0.46687 z"
   id="path38"
   style="stroke-width:0.160055" />
<path
   fill="#044ba8"
   opacity="1"
   stroke="none"
   d="m 350.47971,113.3431 c 0.25864,0.11019 0.5578,0.26162 0.87569,0.46687 -0.26587,-0.10598 -0.55054,-0.2658 -0.87569,-0.46687 z"
   id="path40"
   style="stroke-width:0.160055" />
<path
   fill="#044ba8"
   opacity="1"
   stroke="none"
   d="m 334.90368,104.67073 c 0.18443,0.068 0.39143,0.18172 0.6117,0.34273 -0.18754,-0.0675 -0.38837,-0.18227 -0.6117,-0.34273 z"
   id="path42"
   style="stroke-width:0.160055" />
<path
   fill="#044ba8"
   opacity="1"
   stroke="none"
   d="m 325.30032,99.388876 c 0.18443,0.068 0.39143,0.18174 0.61173,0.34276 -0.18752,-0.0675 -0.38836,-0.18228 -0.61173,-0.34276 z"
   id="path44"
   style="stroke-width:0.160055" />
<path
   fill="#044ba8"
   opacity="1"
   stroke="none"
   d="m 376.03791,127.71867 c 0.18443,0.068 0.39146,0.18177 0.61173,0.34278 -0.18753,-0.0675 -0.38837,-0.18229 -0.61173,-0.34278 z"
   id="path46"
   style="stroke-width:0.160055" />
<path
   fill="#044ba8"
   opacity="1"
   stroke="none"
   d="m 373.47702,126.27817 c 0.18443,0.068 0.39147,0.18176 0.61173,0.34278 -0.18753,-0.0675 -0.38837,-0.18228 -0.61173,-0.34278 z"
   id="path48"
   style="stroke-width:0.160055" />
<path
   fill="#044ba8"
   opacity="1"
   stroke="none"
   d="m 348.18829,112.03328 c 0.18443,0.068 0.39143,0.18172 0.6117,0.34273 -0.18754,-0.0675 -0.38838,-0.18225 -0.6117,-0.34273 z"
   id="path50"
   style="stroke-width:0.160055" />
<path
   fill="#044ba8"
   opacity="1"
   stroke="none"
   d="m 346.74779,111.23302 c 0.18443,0.068 0.39143,0.18172 0.6117,0.34271 -0.18754,-0.0675 -0.38838,-0.18226 -0.6117,-0.34271 z"
   id="path52"
   style="stroke-width:0.160055" />
<path
   fill="#044ba8"
   opacity="1"
   stroke="none"
   d="m 330.26204,102.10981 c 0.18443,0.068 0.39143,0.18176 0.61173,0.34276 -0.18752,-0.0675 -0.38836,-0.18227 -0.61173,-0.34276 z"
   id="path54"
   style="stroke-width:0.160055" />
<path
   fill="#044ba8"
   opacity="1"
   stroke="none"
   d="m 333.46318,103.87046 c 0.18443,0.068 0.39143,0.18172 0.6117,0.34272 -0.18754,-0.0675 -0.38837,-0.18226 -0.6117,-0.34272 z"
   id="path56"
   style="stroke-width:0.160055" />
<path
   fill="#044ba8"
   opacity="1"
   stroke="none"
   d="m 328.81176,101.29948 c 0.11846,0.0383 0.26079,0.12321 0.43559,0.24668 -0.11561,-0.041 -0.26369,-0.12052 -0.43559,-0.24668 z"
   id="path58"
   style="stroke-width:0.160055" />
<path
   fill="#044ba8"
   opacity="1"
   stroke="none"
   d="m 327.05115,100.33914 c 0.11846,0.0383 0.26079,0.12322 0.43559,0.24669 -0.11561,-0.041 -0.26369,-0.12052 -0.43559,-0.24669 z"
   id="path60"
   style="stroke-width:0.160055" />
</svg>
