<?xml version="1.0"?>
<svg xmlns="http://www.w3.org/2000/svg" xmlns:xlink="http://www.w3.org/1999/xlink" xmlns:svgjs="http://svgjs.com/svgjs" version="1.1" width="512" height="512" x="0" y="0" viewBox="0 0 512 512" style="enable-background:new 0 0 512 512" xml:space="preserve" class=""><g><linearGradient id="SVGID_1_" gradientUnits="userSpaceOnUse" x1="-.78" x2="417.78" y1="486.455" y2="67.895"><stop stop-opacity="1" stop-color="#0449a2" offset="0"/><stop stop-opacity="1" stop-color="#2cab16" offset="1"/></linearGradient><path clip-rule="evenodd" d="m206.192 366.842c0-4.418 3.582-8 8-8h104.492c4.418 0 8 3.582 8 8s-3.582 8-8 8h-104.492c-4.419 0-8-3.582-8-8zm8-202.362h104.492c4.418 0 8-3.582 8-8s-3.582-8-8-8h-104.492c-4.418 0-8 3.582-8 8s3.581 8 8 8zm0 254.832h104.492c4.418 0 8-3.582 8-8s-3.582-8-8-8h-104.492c-4.418 0-8 3.582-8 8s3.581 8 8 8zm-103.502-279.722h37.5c8.917 0 16.495 5.767 19.25 13.76l12.47-11.316c3.272-2.971 8.331-2.725 11.301.548 2.969 3.271 2.724 8.331-.548 11.3l-22.099 20.055v23.529c0 11.234-9.14 20.375-20.375 20.375h-37.5c-11.234 0-20.375-9.141-20.375-20.375v-37.5c.002-11.236 9.142-20.376 20.376-20.376zm37.501 16h-37.5c-2.371 0-4.375 2.004-4.375 4.375v37.5c0 2.371 2.003 4.375 4.375 4.375h37.5c2.371 0 4.375-2.004 4.375-4.375v-9.009l-6.124 5.558c-1.529 1.388-3.454 2.076-5.375 2.076-2.052 0-4.1-.785-5.658-2.343l-18.208-18.207c-3.124-3.124-3.125-8.189 0-11.314 3.124-3.123 8.189-3.123 11.313 0l12.818 12.818 11.233-10.194v-6.885c0-2.371-2.003-4.375-4.374-4.375zm43.021 92.172c2.969 3.271 2.724 8.331-.548 11.3l-22.099 20.055v23.53c0 11.234-9.14 20.374-20.375 20.374h-37.5c-11.234 0-20.375-9.14-20.375-20.374v-37.501c0-11.234 9.14-20.375 20.375-20.375h37.5c8.917 0 16.495 5.767 19.25 13.76l12.47-11.316c3.273-2.973 8.332-2.726 11.302.547zm-38.647 45.875-6.124 5.558c-1.529 1.388-3.454 2.076-5.375 2.076-2.052 0-4.1-.785-5.658-2.343l-18.208-18.207c-3.124-3.124-3.125-8.189 0-11.314 3.124-3.123 8.189-3.123 11.313 0l12.818 12.818 11.233-10.194v-6.885c0-2.371-2.003-4.375-4.375-4.375h-37.5c-2.371 0-4.375 2.004-4.375 4.375v37.501c0 2.371 2.003 4.374 4.375 4.374h37.5c2.371 0 4.375-2.003 4.375-4.374v-9.01zm38.647 59.306c2.969 3.271 2.724 8.331-.548 11.3l-22.099 20.055v23.529c0 11.234-9.14 20.375-20.375 20.375h-37.5c-11.234 0-20.375-9.141-20.375-20.375v-37.501c0-11.234 9.14-20.374 20.375-20.374h37.5c8.917 0 16.496 5.767 19.251 13.76l12.469-11.316c3.273-2.971 8.332-2.725 11.302.547zm-38.647 45.875-6.124 5.558c-1.529 1.388-3.454 2.076-5.375 2.076-2.052 0-4.1-.785-5.658-2.343l-18.208-18.208c-3.125-3.125-3.124-8.19 0-11.314 3.125-3.124 8.19-3.122 11.313 0l12.818 12.819 11.233-10.194v-6.886c0-2.371-2.003-4.374-4.375-4.374h-37.5c-2.371 0-4.375 2.003-4.375 4.374v37.501c0 2.371 2.003 4.375 4.375 4.375h37.5c2.371 0 4.375-2.004 4.375-4.375v-9.009zm352.403-204.409v76.815c0 27.734-9.912 54.787-27.908 76.174-17.289 20.546-41.018 34.616-67.092 39.91v94.454c0 16.673-13.564 30.237-30.237 30.237h-342.461c-16.673 0-30.237-13.564-30.237-30.237v-409.174c0-16.673 13.564-30.237 30.237-30.237h77.615v-5.441c0-4.418 3.582-8 8-8h43.023c6.817-17.299 23.524-28.91 42.592-28.91 19.069 0 35.775 11.609 42.592 28.909h43.023c4.418 0 8 3.582 8 8v5.441h77.616c16.673 0 30.237 13.564 30.237 30.237v75.832l90.151 38.636c2.942 1.261 4.849 4.154 4.849 7.354zm-202.853-136.058v14.935h68.917c4.418 0 8 3.582 8 8v73.535l14.936-6.401v-75.832c0-7.851-6.387-14.237-14.237-14.237zm-171.23 28.376h155.23v-41.818h-40.866c-3.696 0-6.91-2.531-7.777-6.124-3.236-13.416-15.15-22.785-28.972-22.785-13.823 0-25.736 9.369-28.972 22.785-.866 3.593-4.081 6.124-7.777 6.124h-40.867v41.818zm-8 16c-4.418 0-8-3.582-8-8v-5.441h-60.918v375.779h309.065v-88.687c-13.71-7.135-26.036-16.952-36.156-28.979-8.429-10.017-15.084-21.277-19.778-33.268h-92.906c-4.418 0-8-3.582-8-8s3.582-8 8-8h87.92c-2.07-8.779-3.145-17.805-3.145-26.906v-1.563h-84.776c-4.418 0-8-3.582-8-8s3.582-8 8-8h84.776v-44.712h-84.776c-4.418 0-8-3.582-8-8s3.582-8 8-8h84.926c.483-2.595 2.214-4.829 4.699-5.894l59.216-25.378v-72.393h-60.917v5.441c0 4.418-3.582 8-8 8h-171.23zm271.083 379.036v-94.455c-5.079-1.031-10.065-2.395-14.936-4.076v89.833c0 4.418-3.582 8-8 8h-325.065c-4.418 0-8-3.582-8-8v-391.78c0-4.418 3.582-8 8-8h68.917v-14.934h-77.614c-7.851 0-14.237 6.387-14.237 14.237v409.175c0 7.851 6.387 14.237 14.237 14.237h342.46c7.851 0 14.238-6.387 14.238-14.237zm95-282.078-87-37.285-87 37.285v71.54c0 10.904 1.705 21.452 4.882 31.369.305.616.538 1.272.676 1.965 11.84 34.517 41.62 61.034 79.358 67.613l2.083.363 2.084-.363c49.204-8.578 84.916-51.032 84.916-100.947v-71.54zm-83.849-17.907 62.429 26.754c2.941 1.261 4.849 4.153 4.849 7.354v55.339c0 40.662-28.949 76.063-68.834 84.177-.526.106-1.061.16-1.595.16s-1.068-.054-1.595-.16c-39.885-8.113-68.834-43.515-68.834-84.177v-55.339c0-3.2 1.907-6.093 4.849-7.354l62.429-26.754c2.012-.861 4.289-.861 6.302 0zm-3.151 16.058-54.429 23.325v50.063c0 32.544 22.791 60.946 54.429 68.153 31.638-7.207 54.429-35.609 54.429-68.153v-50.063zm-25.559 65.541c-3.124-3.123-8.189-3.124-11.313.001-3.125 3.124-3.124 8.189 0 11.313l18.208 18.207c1.558 1.558 3.606 2.343 5.658 2.343 1.922 0 3.847-.688 5.375-2.076l44.223-40.133c3.271-2.969 3.517-8.028.548-11.3-2.97-3.272-8.028-3.519-11.301-.548l-38.579 35.011zm-167.909-234.386c-5.508 0-10 4.492-10 10s4.492 10 10 10 10-4.492 10-10-4.492-10-10-10z" fill="url(#SVGID_1_)" fill-rule="evenodd" data-original="url(#SVGID_1_)"/></g></svg>
