<svg xmlns="http://www.w3.org/2000/svg" xmlns:xlink="http://www.w3.org/1999/xlink" width="83.393" height="79.204" viewBox="0 0 83.393 79.204">
  <defs>
    <linearGradient id="linear-gradient" x1="1" y1="1" x2="0" y2="1" gradientUnits="objectBoundingBox">
      <stop offset="0" stop-color="#2cac16"/>
      <stop offset="1" stop-color="#0449a2"/>
    </linearGradient>
  </defs>
  <path id="Idea" d="M16.333,2.406,12.145,6.594l6.236,6.236,4.188-4.188Zm54.726,0L64.824,8.642l4.188,4.188,6.236-6.236ZM43.7,4.268a26.862,26.862,0,0,0-2.978.186c-.032,0-.061,0-.093,0A27.039,27.039,0,0,0,17.264,27.629a26.67,26.67,0,0,0,9.307,24.106,15.618,15.618,0,0,1,5.212,9.028v17.87h6.794a5.888,5.888,0,0,0,10.238,0H55.61V66.719h.279V63.182c0-4.368,2.269-8.768,5.957-12.192A28.521,28.521,0,0,0,70.5,30.979,26.76,26.76,0,0,0,43.7,4.268Zm0,5.957A20.677,20.677,0,0,1,64.545,30.979a22.394,22.394,0,0,1-6.887,15.729l.093.093a23.2,23.2,0,0,0-7.26,13.961H37.461A21.132,21.132,0,0,0,30.48,47.174a20.668,20.668,0,0,1-7.353-18.8A21.345,21.345,0,0,1,43.7,10.224ZM2,30.979v5.957h8.935V30.979Zm74.458,0v5.957h8.935V30.979ZM18.381,55.085l-6.236,6.236,4.188,4.188,6.236-6.236Zm50.631,0-4.188,4.188,6.236,6.236,4.188-4.188ZM37.74,66.719H49.653v5.957H37.74Z" transform="translate(-2 -2.406)" fill="url(#linear-gradient)"/>
</svg>
