<?xml version="1.0"?>
<svg xmlns="http://www.w3.org/2000/svg" xmlns:xlink="http://www.w3.org/1999/xlink" xmlns:svgjs="http://svgjs.com/svgjs" version="1.1" width="512" height="512" x="0" y="0" viewBox="0 0 512 512" style="enable-background:new 0 0 512 512" xml:space="preserve" class=""><g><linearGradient id="SVGID_1_" gradientUnits="userSpaceOnUse" x1="91.568" x2="401.197" y1="400.332" y2="90.703"><stop stop-opacity="1" stop-color="#0449a2" offset="0"/><stop stop-opacity="1" stop-color="#2cab16" offset="1"/></linearGradient><path clip-rule="evenodd" d="m479.794 169.301-55.734-55.733c-1.144-1.143-2.694-1.786-4.312-1.786h-80.795c-3.367 0-6.097 2.731-6.097 6.097v149.995h-296.34c-3.367 0-6.096 2.73-6.096 6.096v62.69c0 3.366 2.729 6.097 6.096 6.097h44.354c-.498 2.805-.804 5.676-.804 8.622 0 27.134 22.074 49.206 49.209 49.206s49.21-22.073 49.21-49.206c0-2.945-.306-5.816-.804-8.622h139.005c-.499 2.805-.805 5.676-.805 8.622 0 27.134 22.075 49.206 49.21 49.206s49.209-22.073 49.209-49.206c0-2.945-.306-5.816-.804-8.622h61.988c3.368 0 6.098-2.731 6.098-6.097v-62.69-100.36c-.002-1.614-.645-3.167-1.788-4.309zm-134.745-45.325h72.175l52.162 52.16v91.737h-124.337zm-215.775 264.415c-20.41 0-37.015-16.603-37.015-37.014 0-20.41 16.606-37.017 37.015-37.017 20.412 0 37.017 16.607 37.017 37.017 0 20.411-16.605 37.014-37.017 37.014zm235.816 0c-20.412 0-37.017-16.603-37.017-37.014 0-20.41 16.606-37.017 37.017-37.017 20.41 0 37.016 16.607 37.016 37.017 0 20.411-16.606 37.014-37.016 37.014zm104.296-57.828h-59.77c-7.861-16.745-24.837-28.397-44.526-28.397s-36.666 11.652-44.528 28.397h-146.761c-7.862-16.745-24.838-28.397-44.528-28.397-19.689 0-36.665 11.652-44.526 28.397h-42.135v-50.498h426.774zm-26.46-145.993c1.143 1.144 1.786 2.696 1.786 4.312v37.766c0 3.366-2.729 6.098-6.098 6.098h-62.79c-3.369 0-6.098-2.732-6.098-6.098v-71.903c0-3.366 2.729-6.097 6.098-6.097h28.654c1.618 0 3.167.643 4.31 1.786zm-10.408 35.981h-50.598v-59.709h20.032l30.565 30.564v29.145zm-365.949 27.507c-19.933 0-36.15-16.218-36.15-36.151v-64.342c0-19.934 16.216-36.149 36.15-36.149h33.318 43.765 133.24c19.933 0 36.15 16.215 36.15 36.149v64.342c0 19.933-16.217 36.151-36.15 36.151h-133.24-43.764zm70.987-52.667h-31.571v-30.945h31.571zm-31.571 40.475v-28.282h31.571v28.282zm194.863-88.301v64.342c0 13.209-10.747 23.959-23.956 23.959h-127.143v-112.256h127.144c13.208 0 23.955 10.744 23.955 23.955zm-163.292-23.955v28.643h-31.571v-28.643zm-94.944 23.955c0-13.211 10.747-23.955 23.957-23.955h27.221v112.255h-27.221c-13.21 0-23.957-10.75-23.957-23.959z" fill="url(#SVGID_1_)" fill-rule="evenodd" data-original="url(#SVGID_1_)"/></g></svg>
