<svg xmlns="http://www.w3.org/2000/svg" xmlns:xlink="http://www.w3.org/1999/xlink" width="74.51" height="79.204" viewBox="0 0 74.51 79.204">
  <defs>
    <linearGradient id="linear-gradient" x1="1" y1="1" x2="0" y2="1" gradientUnits="objectBoundingBox">
      <stop offset="0" stop-color="#2cac16"/>
      <stop offset="1" stop-color="#0449a2"/>
    </linearGradient>
  </defs>
  <path id="Customer_Support" data-name="Customer Support" d="M37.51,3A33.626,33.626,0,0,0,4,36.509C4,43.1,6.563,48.621,8.855,53.55s4.284,9.248,4.284,13.708V82.2h6.093V67.258c0-6.2-2.578-11.383-4.855-16.279s-4.284-9.484-4.284-14.47A27.513,27.513,0,0,1,34.463,9.283v21.61A12.135,12.135,0,0,0,37.51,54.787a11.977,11.977,0,0,0,6.473-1.9l5.712,3.9a4.581,4.581,0,1,0,4.569-5.046,4.9,4.9,0,0,0-.952.1l-5.141-3.522A11.945,11.945,0,0,0,49.695,42.6a12.138,12.138,0,0,0-9.139-11.709V9.188c9.643.788,15.166,5.263,18.564,9.71a25.749,25.749,0,0,1,4.665,9.71l.1.381.19.381,8.092,16.279a2.172,2.172,0,0,1,.19,1.047h-.19c-1.635.545-4.95,1.523-4.95,1.523l-2.285.571v9.044a10.267,10.267,0,0,1-9.139,9.139H49.695V82.2h6.093V73.065A15.983,15.983,0,0,0,71.019,57.834V53.36c1.038-.293,1.731-.4,2.856-.762.1-.024.19-.066.286-.1v-.1a6.285,6.285,0,0,0,4.093-4,7.563,7.563,0,0,0-.476-5.141v-.1l-.1-.1L69.591,26.8l-.1-.19a30.6,30.6,0,0,0-5.617-11.424C59.247,9.122,50.891,3,37.51,3Zm0,33.509A6.093,6.093,0,1,1,31.417,42.6,6.047,6.047,0,0,1,37.51,36.509Z" transform="translate(-4 -3)" fill="url(#linear-gradient)"/>
</svg>
