<svg xmlns="http://www.w3.org/2000/svg" xmlns:xlink="http://www.w3.org/1999/xlink" width="75.291" height="79.204" viewBox="0 0 75.291 79.204">
  <defs>
    <linearGradient id="linear-gradient" x1="1" y1="1" x2="0" y2="1" gradientUnits="objectBoundingBox">
      <stop offset="0" stop-color="#2cac16"/>
      <stop offset="1" stop-color="#0449a2"/>
    </linearGradient>
  </defs>
  <path id="Approval" d="M41.02,2.719,39.157,4.21,30.77,10.919l-10.809-.466-2.423-.186-.559,2.33-2.7,10.343L5.332,28.81l-1.957,1.3.839,2.236,3.82,9.97-3.82,9.971-.839,2.236,1.957,1.3,8.945,5.87,2.7,10.343.559,2.329,2.423-.186,10.809-.466,8.386,6.709,1.864,1.491,1.864-1.491,8.386-6.709,10.809.466,2.423.186.559-2.329,2.7-10.343,8.945-5.87,1.957-1.3-.838-2.236-3.821-9.971,3.821-9.97.838-2.236-1.957-1.3-8.945-5.871L65.061,12.6l-.559-2.33-2.423.186-10.809.466L42.884,4.21Zm0,7.641,7.361,5.964.932.745,1.118-.093,9.5-.466,2.329,8.946.28,1.118.932.652,7.92,5.218L68.043,41.3l-.373,1.025.373,1.025L71.4,52.2l-7.92,5.218-.932.652-.28,1.118-2.329,8.945-9.5-.466-1.118-.093-.932.745L41.02,74.282l-7.361-5.964-.932-.745-1.118.093-9.5.466-2.33-8.945-.28-1.118-.932-.652L10.643,52.2,14,43.346l.373-1.025L14,41.3l-3.355-8.852,7.92-5.218.932-.652.28-1.118L22.1,16.51l9.5.466,1.118.093.932-.745ZM56.768,31.232,38.038,49.962l-9.784-9.784-4.286,4.286L35.9,56.391l2.143,2.05,2.143-2.05L61.054,35.519Z" transform="translate(-3.375 -2.719)" fill="url(#linear-gradient)"/>
</svg>
