<?xml version="1.0"?>
<svg xmlns="http://www.w3.org/2000/svg" xmlns:xlink="http://www.w3.org/1999/xlink" xmlns:svgjs="http://svgjs.com/svgjs" version="1.1" width="512" height="512" x="0" y="0" viewBox="0 0 512 512" style="enable-background:new 0 0 512 512" xml:space="preserve"><g><linearGradient id="SVGID_1_" gradientUnits="userSpaceOnUse" x1="80.72" x2="431.28" y1="431.28" y2="80.72"><stop stop-opacity="1" stop-color="#0449a2" offset="0"/><stop stop-opacity="1" stop-color="#2cab16" offset="1"/></linearGradient><path d="m345.383 270.563c-27.983 0-51.787 18.17-60.278 43.325-9.098-4.102-18.987-6.247-29.105-6.247s-20.007 2.144-29.105 6.246c-8.491-25.155-32.295-43.325-60.278-43.325-35.078 0-63.617 28.538-63.617 63.616s28.539 63.617 63.617 63.617 63.616-28.539 63.616-63.617c0-1.358-.057-2.702-.142-4.039 7.938-4.259 16.801-6.499 25.909-6.499s17.972 2.24 25.909 6.499c-.084 1.337-.142 2.681-.142 4.039 0 35.078 28.538 63.617 63.616 63.617s63.617-28.537 63.617-63.615-28.539-63.617-63.617-63.617zm-178.767 111.233c-26.256 0-47.617-21.361-47.617-47.617s21.361-47.616 47.617-47.616 47.616 21.36 47.616 47.616-21.36 47.617-47.616 47.617zm178.767 0c-26.256 0-47.616-21.361-47.616-47.617s21.36-47.616 47.616-47.616 47.617 21.361 47.617 47.617-21.361 47.616-47.617 47.616zm-211.872-115.096h244.977c14.269 0 25.877-11.608 25.877-25.877 0-14.268-11.608-25.876-25.877-25.876h-26.954l-15.837-98.14c-1.229-7.621-5.288-13.894-11.735-18.139-6.446-4.245-13.811-5.497-21.298-3.615l-42.876 10.77c-2.655.667-4.92.667-7.575 0l-42.876-10.77c-7.486-1.882-14.852-.631-21.298 3.614-6.448 4.246-10.506 10.518-11.735 18.139l-15.837 98.14h-26.954c-14.269 0-25.877 11.608-25.877 25.876-.002 14.27 11.607 25.878 25.875 25.878zm58.588-147.345c.518-3.209 2.023-5.537 4.739-7.325 2.714-1.788 5.446-2.251 8.601-1.459l42.875 10.77c5.244 1.317 10.128 1.317 15.371 0l42.876-10.77c3.154-.792 5.886-.328 8.602 1.46 2.715 1.788 4.221 4.115 4.738 7.325l15.426 95.591h-158.655zm-58.588 111.592h244.977c5.446 0 9.877 4.431 9.877 9.876 0 5.446-4.431 9.877-9.877 9.877h-244.977c-5.446 0-9.877-4.431-9.877-9.877s4.431-9.876 9.877-9.876zm122.489-222.947c-136.748 0-248 111.252-248 248s111.252 248 248 248 248-111.252 248-248-111.252-248-248-248zm0 480c-127.925 0-232-104.075-232-232s104.075-232 232-232c127.926 0 232 104.075 232 232s-104.075 232-232 232z" fill="url(#SVGID_1_)" data-original="url(#SVGID_1_)"/></g></svg>
