<?xml version="1.0"?>
<svg xmlns="http://www.w3.org/2000/svg" xmlns:xlink="http://www.w3.org/1999/xlink" xmlns:svgjs="http://svgjs.com/svgjs" version="1.1" width="512" height="512" x="0" y="0" viewBox="0 0 512 512" style="enable-background:new 0 0 512 512" xml:space="preserve" class=""><g><linearGradient id="SVGID_1_" gradientUnits="userSpaceOnUse" x1="13.277" x2="498.723" y1="504.59" y2="19.144"><stop stop-opacity="1" stop-color="#0449a2" offset="0"/><stop stop-opacity="1" stop-color="#2cab16" offset="1"/></linearGradient><path d="m166.183 96.867-12.161-1.947c-.424-1.136-.889-2.256-1.393-3.359l7.224-9.976c2.305-3.184 1.956-7.57-.823-10.349l-11.186-11.186c-2.779-2.779-7.165-3.127-10.349-.823l-9.976 7.223c-1.104-.505-2.224-.97-3.36-1.394l-1.946-12.16c-.621-3.88-3.969-6.735-7.899-6.735h-15.818c-3.93 0-7.278 2.855-7.899 6.735l-1.946 12.16c-1.136.424-2.257.889-3.36 1.394l-9.976-7.223c-3.185-2.306-7.57-1.957-10.349.823l-11.186 11.186c-2.779 2.779-3.128 7.165-.823 10.348l7.224 9.977c-.505 1.103-.969 2.223-1.393 3.359l-12.161 1.946c-3.88.621-6.735 3.969-6.735 7.899v15.819c0 3.93 2.855 7.278 6.736 7.899l12.16 1.946c.424 1.136.888 2.256 1.393 3.359l-7.224 9.977c-2.305 3.183-1.956 7.569.823 10.348l11.185 11.187c2.779 2.778 7.165 3.127 10.348.823l9.977-7.223c1.104.505 2.224.97 3.36 1.394l1.946 12.16c.621 3.88 3.969 6.735 7.899 6.735h15.818c3.93 0 7.278-2.855 7.899-6.735l1.947-12.161c1.136-.424 2.256-.888 3.359-1.393l9.977 7.224c3.183 2.305 7.569 1.956 10.348-.823l11.186-11.186c2.779-2.779 3.128-7.165.823-10.349l-7.223-9.976c.505-1.104.97-2.224 1.394-3.36l12.159-1.946c3.881-.621 6.736-3.969 6.736-7.899v-15.819c0-3.93-2.855-7.278-6.735-7.899zm-9.265 16.897-10.3 1.648c-3.148.504-5.697 2.829-6.486 5.918-.813 3.18-2.079 6.231-3.761 9.068-1.626 2.743-1.469 6.19.401 8.773l6.121 8.453-1.539 1.539-8.454-6.121c-2.583-1.87-6.03-2.029-8.772-.401-2.833 1.681-5.885 2.946-9.07 3.761-3.088.79-5.412 3.338-5.916 6.485l-1.649 10.301h-2.176l-1.649-10.301c-.504-3.148-2.829-5.696-5.918-6.486-3.181-.813-6.231-2.079-9.068-3.761-2.742-1.627-6.188-1.469-8.772.4l-8.454 6.121-1.539-1.539 6.121-8.454c1.87-2.583 2.027-6.03.4-8.772-1.68-2.833-2.945-5.884-3.76-9.069-.79-3.088-3.338-5.413-6.486-5.917l-10.301-1.648v-2.176l10.301-1.649c3.147-.504 5.696-2.829 6.486-5.917.814-3.184 2.08-6.235 3.76-9.069 1.626-2.743 1.469-6.19-.401-8.772l-6.121-8.454 1.539-1.539 8.453 6.12c2.582 1.871 6.029 2.028 8.772.401 2.837-1.683 5.889-2.948 9.069-3.761 3.089-.79 5.414-3.338 5.918-6.486l1.649-10.3h2.176l1.649 10.3c.504 3.148 2.829 5.696 5.918 6.486 3.18.812 6.231 2.078 9.068 3.761 2.742 1.626 6.189 1.469 8.773-.401l8.453-6.121 1.539 1.539-6.121 8.454c-1.87 2.583-2.027 6.03-.401 8.773 1.681 2.834 2.947 5.886 3.762 9.07.79 3.088 3.338 5.412 6.485 5.916l10.301 1.649zm-50.513-32.461c-17.299 0-31.373 14.074-31.373 31.373s14.074 31.373 31.373 31.373 31.373-14.074 31.373-31.373c0-17.3-14.074-31.373-31.373-31.373zm0 46.745c-8.477 0-15.373-6.896-15.373-15.373s6.896-15.373 15.373-15.373 15.373 6.896 15.373 15.373-6.897 15.373-15.373 15.373zm266.033-31.591h-21.083c-4.418 0-8 3.582-8 8v51.679c0 4.418 3.582 8 8 8h21.083c4.418 0 8-3.582 8-8v-51.679c0-4.418-3.582-8-8-8zm-8 51.679h-5.083v-35.679h5.083zm99.671-86.922h-21.083c-4.418 0-8 3.582-8 8v86.922c0 4.418 3.582 8 8 8h21.083c4.418 0 8-3.582 8-8v-86.922c0-4.418-3.581-8-8-8zm-8 86.922h-5.083v-70.922h5.083zm-37.836-70.232h-21.082c-4.418 0-8 3.582-8 8v70.232c0 4.418 3.582 8 8 8h21.082c4.418 0 8-3.582 8-8v-70.232c0-4.419-3.581-8-8-8zm-8 70.232h-5.082v-54.232h5.082zm65.727-140.136h-440c-15.439 0-28 12.561-28 28v153.351c0 15.439 12.561 28 28 28h119.738v22.431h-79.357c-4.418 0-8 3.582-8 8v41.376c0 4.418 3.582 8 8 8h359.237c4.418 0 8-3.582 8-8v-41.376c0-4.418-3.582-8-8-8h-79.356v-22.431h119.738c15.439 0 28-12.561 28-28v-153.351c0-15.439-12.561-28-28-28zm-48.381 273.158h-343.238v-25.376h343.237v25.376zm-113.282-41.376v-21.293c0-4.418-3.582-8-8-8s-8 3.582-8 8v21.293h-84.675v-21.293c0-4.418-3.582-8-8-8s-8 3.582-8 8v21.293h-25.924v-40.56c0-17.438 17.992-25.724 33.086-29.604 33.349-8.576 67.808-8.57 102.418.017 12.332 3.059 33.02 10.971 33.02 29.587v40.56zm-58.337-101.889c-18.482 0-33.518-20.89-33.518-46.568 0-30.631 21-35.205 33.518-35.205s33.519 4.574 33.519 35.205c-.001 25.677-15.037 46.568-33.519 46.568zm232 51.458c0 6.617-5.383 12-12 12h-119.738v-2.129c0-21.552-16.463-37.996-45.167-45.117-11.517-2.857-23.022-4.824-34.485-5.912 17.041-9.9 28.908-31.659 28.908-56.869 0-31.584-18.975-51.205-49.519-51.205s-49.518 19.621-49.518 51.205c0 25.154 11.815 46.874 28.795 56.804-11.572 1.075-23.062 3.068-34.437 5.993-29.084 7.477-45.102 23.493-45.102 45.1v2.129h-119.737c-6.617 0-12-5.383-12-12v-153.35c0-6.617 5.383-12 12-12h440c6.617 0 12 5.383 12 12zm-355.764 203.719c-7.485-1.924-15.034-3.33-22.63-4.245 11.677-8.944 19.486-25.062 19.486-43.424 0-13.328-4.179-24.285-12.085-31.688-7.164-6.707-17.029-10.252-28.53-10.252s-21.366 3.545-28.53 10.252c-7.906 7.402-12.085 18.359-12.085 31.688 0 18.398 7.839 34.545 19.554 43.479-7.529.914-15.078 2.3-22.632 4.174-23.377 5.799-36.784 19.324-36.784 37.107v65.839c0 4.418 3.582 8 8 8h144.954c4.418 0 8-3.582 8-8v-65.839c0-17.572-13.383-31.092-36.718-37.091zm-43.759-73.608c11.229 0 24.615 4.5 24.615 25.939 0 18.899-11.272 34.866-24.615 34.866s-24.615-15.967-24.615-34.866c0-21.439 13.386-25.939 24.615-25.939zm64.477 168.538h-16.934v-42.704c0-4.418-3.582-8-8-8s-8 3.582-8 8v42.704h-63.085v-42.704c0-4.418-3.582-8-8-8s-8 3.582-8 8v42.704h-16.935v-57.839c0-13.457 15.436-19.296 24.636-21.578 26.912-6.676 53.698-6.681 79.616-.017 11.27 2.897 24.703 8.995 24.703 21.595v57.839zm314.328-94.93c-7.485-1.924-15.034-3.33-22.63-4.245 11.676-8.944 19.486-25.062 19.486-43.424 0-13.328-4.179-24.285-12.085-31.688-7.164-6.707-17.029-10.252-28.53-10.252s-21.366 3.545-28.53 10.252c-7.906 7.402-12.085 18.359-12.085 31.688 0 18.398 7.839 34.545 19.554 43.479-7.529.914-15.077 2.3-22.632 4.174-23.377 5.799-36.784 19.324-36.784 37.107v65.839c0 4.418 3.582 8 8 8h144.954c4.418 0 8-3.582 8-8v-65.839c0-17.572-13.383-31.092-36.718-37.091zm-43.759-73.608c11.229 0 24.615 4.5 24.615 25.939 0 18.899-11.272 34.866-24.615 34.866s-24.615-15.967-24.615-34.866c0-21.439 13.385-25.939 24.615-25.939zm64.477 168.538h-16.934v-42.704c0-4.418-3.582-8-8-8s-8 3.582-8 8v42.704h-63.086v-42.704c0-4.418-3.582-8-8-8s-8 3.582-8 8v42.704h-16.935v-57.839c0-13.457 15.436-19.296 24.636-21.578 26.912-6.676 53.698-6.681 79.615-.017 11.27 2.897 24.703 8.995 24.703 21.595v57.839zm-188.241-94.93c-7.485-1.924-15.034-3.33-22.629-4.245 11.676-8.944 19.486-25.062 19.486-43.424 0-13.328-4.179-24.285-12.085-31.688-7.164-6.707-17.029-10.252-28.53-10.252-11.5 0-21.366 3.545-28.529 10.252-7.906 7.402-12.085 18.359-12.085 31.688 0 18.398 7.839 34.545 19.554 43.479-7.529.914-15.077 2.3-22.632 4.174-23.377 5.799-36.784 19.324-36.784 37.107v65.839c0 4.418 3.582 8 8 8h144.955c4.418 0 8-3.582 8-8v-65.839c-.002-17.572-13.386-31.092-36.721-37.091zm-43.759-73.608c11.229 0 24.615 4.5 24.615 25.939 0 18.899-11.272 34.866-24.615 34.866s-24.615-15.967-24.615-34.866c0-21.439 13.386-25.939 24.615-25.939zm64.478 168.538h-16.934v-42.704c0-4.418-3.582-8-8-8s-8 3.582-8 8v42.704h-63.086v-42.704c0-4.418-3.582-8-8-8s-8 3.582-8 8v42.704h-16.935v-57.839c0-13.457 15.436-19.296 24.636-21.578 26.912-6.676 53.697-6.681 79.615-.017 11.27 2.897 24.703 8.996 24.703 21.595v57.839z" fill="url(#SVGID_1_)" data-original="url(#SVGID_1_)"/></g></svg>
