<?xml version="1.0"?>
<svg xmlns="http://www.w3.org/2000/svg" xmlns:xlink="http://www.w3.org/1999/xlink" xmlns:svgjs="http://svgjs.com/svgjs" version="1.1" width="512" height="512" x="0" y="0" viewBox="0 0 512 512" style="enable-background:new 0 0 512 512" xml:space="preserve" class=""><g><linearGradient id="SVGID_1_" gradientUnits="userSpaceOnUse" x1="73.381" x2="438.621" y1="438.621" y2="73.381"><stop stop-opacity="1" stop-color="#0449a2" offset="0"/><stop stop-opacity="1" stop-color="#2cab16" offset="1"/></linearGradient><path clip-rule="evenodd" d="m304.424 284.232v-77.883c0-3.709 2.998-6.692 6.697-6.692 3.7 0 6.701 2.983 6.701 6.692v77.883c0 3.683-3.001 6.693-6.701 6.693-3.699 0-6.697-3.01-6.697-6.693zm-69.221-61.276 14.766 33.488h-29.532zm-37.027 67.405c3.4 1.504 7.34-.054 8.831-3.441l7.525-17.066h41.343l7.522 17.066c1.105 2.499 3.564 4.005 6.13 4.005.91 0 1.821-.189 2.701-.564 3.389-1.506 4.918-5.456 3.427-8.842l-34.322-77.885c-1.075-2.42-3.477-3.978-6.13-3.978s-5.064 1.558-6.127 3.978l-34.326 77.885c-1.491 3.386.039 7.336 3.426 8.842zm-56.775 91.617c-6.276 0-11.387-5.107-11.387-11.368 0-6.29 5.112-11.395 11.387-11.395 6.283 0 11.386 5.105 11.386 11.395 0 6.262-5.102 11.368-11.386 11.368zm0-36.174c-13.663 0-24.786 11.126-24.786 24.806 0 13.652 11.123 24.78 24.786 24.78 13.669 0 24.784-11.127 24.784-24.78.001-13.68-11.114-24.806-24.784-24.806zm218.189 13.787v-207.182h-207.18v140.558l66.625 66.623h140.555zm6.704-220.566h-220.584c-3.698 0-6.701 2.982-6.701 6.691v150.018c0 1.774.707 3.494 1.966 4.757l70.553 70.549c1.249 1.235 2.953 1.961 4.735 1.961h150.031c3.697 0 6.698-3.01 6.698-6.719v-220.565c0-3.709-3.001-6.692-6.698-6.692zm54.905 282.192v-330.406h-330.398v330.406zm75.966-196.701c3.701 0 6.7-3.011 6.7-6.719 0-3.683-2.999-6.692-6.7-6.692h-62.565v-62.996h62.565c3.701 0 6.7-3.009 6.7-6.691 0-3.709-2.999-6.72-6.7-6.72h-62.565v-50.58c0-3.709-3.002-6.719-6.7-6.719h-50.599v-62.566c0-3.708-3.002-6.691-6.701-6.691-3.697 0-6.702 2.984-6.702 6.691v62.566h-63.002v-62.566c0-3.708-2.991-6.691-6.688-6.691-3.698 0-6.7 2.984-6.7 6.691v62.566h-63.005v-62.566c0-3.708-3.002-6.691-6.701-6.691-3.697 0-6.699 2.984-6.699 6.691v62.566h-63.002v-62.566c0-3.708-2.995-6.691-6.701-6.691-3.697 0-6.699 2.984-6.699 6.691v62.566h-50.6c-3.698 0-6.701 3.01-6.701 6.719v50.579h-62.565c-3.702 0-6.701 3.011-6.701 6.72 0 3.682 2.999 6.691 6.701 6.691h62.565v62.996h-62.565c-3.702 0-6.701 3.009-6.701 6.692 0 3.708 2.999 6.719 6.701 6.719h62.565v62.996h-62.565c-3.702 0-6.701 2.984-6.701 6.691 0 3.709 2.999 6.692 6.701 6.692h62.565v62.996h-62.565c-3.702 0-6.701 3.01-6.701 6.719 0 3.681 2.999 6.692 6.701 6.692h62.565v50.605c0 3.683 3.002 6.693 6.701 6.693h50.602v62.566c0 3.708 3.002 6.691 6.699 6.691 3.706 0 6.701-2.984 6.701-6.691v-62.566h63.002v62.566c0 3.708 3.002 6.691 6.699 6.691 3.698 0 6.701-2.984 6.701-6.691v-62.566h63.005v62.566c0 3.708 3.002 6.691 6.7 6.691 3.697 0 6.688-2.984 6.688-6.691v-62.566h63.002v62.566c0 3.708 3.005 6.691 6.702 6.691 3.698 0 6.701-2.984 6.701-6.691v-62.566h50.597c3.698 0 6.7-3.01 6.7-6.693v-50.605h62.565c3.701 0 6.7-3.011 6.7-6.692 0-3.709-2.999-6.719-6.7-6.719h-62.565v-62.996h62.565c3.701 0 6.7-2.984 6.7-6.692s-2.999-6.691-6.7-6.691h-62.565v-62.996h62.565z" fill="url(#SVGID_1_)" fill-rule="evenodd" data-original="url(#SVGID_1_)"/></g></svg>
