<svg xmlns="http://www.w3.org/2000/svg" xmlns:xlink="http://www.w3.org/1999/xlink" width="87.998" height="52.163" viewBox="0 0 87.998 52.163">
  <defs>
    <linearGradient id="linear-gradient" x1="1" y1="1" x2="0" y2="1" gradientUnits="objectBoundingBox">
      <stop offset="0" stop-color="#2cac16"/>
      <stop offset="1" stop-color="#0449a2"/>
    </linearGradient>
  </defs>
  <path id="Diploma_2" data-name="Diploma 2" d="M8.25,9c-3.012,0-5.114,2.235-6.359,4.727A20.367,20.367,0,0,0,0,22.75a20.369,20.369,0,0,0,1.891,9.023C3.136,34.264,5.237,36.5,8.25,36.5H31.968l-7.562,11.43L21.57,52.14h9.883l2.062,4.469,2.062,4.555,2.75-4.211,5.586-8.507,5.758,8.594,2.75,4.039,2.062-4.469,2.062-4.469h9.883l-2.836-4.211L56.03,36.5H79.748c3,0,5.114-2.235,6.359-4.726A20.343,20.343,0,0,0,88,22.75a20.341,20.341,0,0,0-1.891-9.023C84.862,11.235,82.753,9,79.748,9H8.25Zm0,5.5H31.8a20.953,20.953,0,0,0-1.547,8.25A20.953,20.953,0,0,0,31.8,31H8.25c-.013,0-.713-.222-1.461-1.719A15.425,15.425,0,0,1,5.5,22.75a15.425,15.425,0,0,1,1.289-6.531C7.537,14.722,8.237,14.5,8.25,14.5Zm30.249,0h7.047A20.953,20.953,0,0,0,44,22.75,20.953,20.953,0,0,0,45.546,31H38.5c-.012,0-.713-.222-1.461-1.719a15.422,15.422,0,0,1-1.289-6.531,15.422,15.422,0,0,1,1.289-6.531C37.786,14.722,38.487,14.5,38.5,14.5Zm13.75,0h20.8A20.918,20.918,0,0,0,71.5,22.75,20.918,20.918,0,0,0,73.045,31h-20.8c-.012,0-.713-.222-1.461-1.719A15.422,15.422,0,0,1,49.5,22.75a15.421,15.421,0,0,1,1.289-6.531C51.536,14.722,52.236,14.5,52.249,14.5Zm27.5,0c.032,0,.716.229,1.461,1.719A15.4,15.4,0,0,1,82.5,22.75a15.4,15.4,0,0,1-1.289,6.531C80.464,30.771,79.781,31,79.748,31s-.716-.229-1.461-1.719A15.392,15.392,0,0,1,77,22.75a15.392,15.392,0,0,1,1.289-6.531C79.032,14.728,79.716,14.5,79.748,14.5Zm-37.21,22H49.5l6.7,10.14H52.936l-.687,1.633-.687,1.633ZM37.21,38.39l3.351,5.07-4.125,6.273-.687-1.461-.687-1.633H31.8Z" transform="translate(0 -9)" fill="url(#linear-gradient)"/>
</svg>
