<?xml version="1.0"?>
<svg xmlns="http://www.w3.org/2000/svg" xmlns:xlink="http://www.w3.org/1999/xlink" xmlns:svgjs="http://svgjs.com/svgjs" version="1.1" width="512" height="512" x="0" y="0" viewBox="0 0 512 512" style="enable-background:new 0 0 512 512" xml:space="preserve" class=""><g><linearGradient id="SVGID_1_" gradientUnits="userSpaceOnUse" x1="9.236" x2="438.353" y1="516.55" y2="87.433"><stop stop-opacity="1" stop-color="#0449a2" offset="0"/><stop stop-opacity="1" stop-color="#2cab16" offset="1"/></linearGradient><path d="m506.732 461.041-56.715-55.035c-3.325-3.229-7.727-4.924-12.372-4.897-2.484.038-4.872.603-7.055 1.615l-22.644-22.219c10.359-16.898 16.34-36.758 16.34-57.989 0-19.111-4.844-37.111-13.367-52.84v-206.364c0-2.122-.843-4.156-2.343-5.657l-55.313-55.312c-1.5-1.5-3.535-2.343-5.657-2.343h-286.079c-4.418 0-8 3.582-8 8v45.526h-45.527c-4.418 0-8 3.582-8 8v442.474c0 4.418 3.582 8 8 8h341.391c4.418 0 8-3.582 8-8v-45.526h45.527c2.443 0 4.626-1.098 6.094-2.824l53.024 51.452c3.373 3.273 7.742 4.901 12.107 4.901 4.541 0 9.077-1.763 12.481-5.271h.001l20.476-21.104c6.676-6.878 6.511-17.908-.369-24.587zm-88.115-47.65-7 7.215-19.888-19.518c2.369-2.373 4.628-4.855 6.776-7.432zm-105.611 4.402c-52.537 0-95.279-42.741-95.279-95.278s42.742-95.279 95.279-95.279 95.279 42.742 95.279 95.279-42.742 95.278-95.279 95.278zm-10.927-336.953 27.999 27.999h-27.999zm53.527-53.527 27.999 27.998h-27.999zm-286.079-11.313h270.079v47.312c0 4.418 3.582 8 8 8h47.312v175.965c-10.439-11.356-23.202-20.54-37.527-26.795v-103.643c0-2.122-.843-4.156-2.343-5.657l-55.312-55.313c-1.5-1.5-3.535-2.343-5.657-2.343h-224.552zm-53.527 480v-426.474h270.079v47.313c0 4.418 3.582 8 8 8h47.312v90.071c-9.065-2.393-18.578-3.674-28.385-3.674-56.974 0-104.076 43.042-110.519 98.314h-124.82c-4.418 0-8 3.582-8 8s3.582 8 8 8h124.103c.417 15.509 4.028 30.234 10.19 43.547h-134.293c-4.418 0-8 3.582-8 8s3.582 8 8 8h143.374c13.926 20.399 34.453 35.948 58.483 43.546h-201.857c-4.418 0-8 3.582-8 8s3.582 8 8 8h202.056c4.418 0 8-3.582 8-8 0-2.768-1.406-5.207-3.542-6.643 9.198 2.469 18.859 3.793 28.825 3.793 9.807 0 19.32-1.281 28.385-3.674v65.881zm341.391-53.526v-17.927c7.925-3.461 15.375-7.812 22.214-12.938l15.313 15.027v15.837h-37.527zm138.228 32.012-20.476 21.104c-.516.529-1.434.544-1.965.029l-56.717-55.035c-.332-.322-.406-.708-.41-.976-.004-.269.059-.657.381-.988l20.476-21.104c.322-.331.709-.406.977-.41h.024c.266 0 .642.068.964.381l56.715 55.035c.532.516.546 1.434.031 1.964zm-182.613-234.132c-45.303 0-82.16 36.856-82.16 82.16s36.857 82.16 82.16 82.16 82.16-36.856 82.16-82.16-36.857-82.16-82.16-82.16zm0 148.321c-36.481 0-66.16-29.68-66.16-66.16s29.679-66.16 66.16-66.16 66.16 29.68 66.16 66.16-29.679 66.16-66.16 66.16zm-118.939-180.542c1.228-1.42 1.66-3.009 1.399-5.15-.453-3.73-2.776-8.31-16.843-10.619-22.321-3.664-27.538-15.404-27.985-24.607-.608-12.524 7.892-23.025 21.214-26.31v-3.433c0-4.418 3.582-8 8-8s8 3.582 8 8v3.36c8.634 2.028 16.809 7.586 21.113 17.834 1.71 4.074-.205 8.763-4.279 10.474-4.073 1.711-8.763-.206-10.473-4.278-3.345-7.966-11.546-10.011-18.188-8.504-1.634.371-9.769 2.6-9.405 10.081.096 1.984.352 7.256 14.596 9.594 18.39 3.02 28.529 11.256 30.134 24.48.805 6.628-.987 12.695-5.182 17.545-4.195 4.851-10.772 8.278-18.316 9.696v3.16c0 4.418-3.582 8-8 8s-8-3.582-8-8v-3.294c-11.717-2.542-20.684-10.546-23.448-21.631-1.069-4.287 1.54-8.629 5.827-9.698 4.287-1.062 8.629 1.54 9.698 5.827 1.968 7.891 10.215 10.528 16.697 10.354 5.63-.133 11.032-2.095 13.441-4.881zm-78.499 0c1.228-1.42 1.66-3.009 1.399-5.15-.453-3.73-2.777-8.31-16.843-10.619-22.321-3.664-27.539-15.404-27.985-24.607-.608-12.524 7.892-23.025 21.214-26.31v-3.433c0-4.418 3.582-8 8-8s8 3.582 8 8v3.36c8.634 2.028 16.809 7.586 21.112 17.835 1.71 4.073-.205 8.763-4.279 10.473-4.074 1.711-8.763-.205-10.473-4.279-3.345-7.965-11.546-10.011-18.188-8.503-1.634.371-9.769 2.6-9.405 10.08.096 1.985.352 7.257 14.596 9.595 18.39 3.02 28.528 11.256 30.134 24.479.805 6.629-.987 12.696-5.182 17.546-4.195 4.851-10.772 8.278-18.316 9.696v3.16c0 4.418-3.582 8-8 8s-8-3.582-8-8v-3.294c-11.717-2.542-20.684-10.546-23.448-21.631-1.069-4.287 1.54-8.629 5.827-9.698 4.29-1.062 8.629 1.541 9.698 5.827 1.967 7.891 10.219 10.528 16.697 10.354 5.63-.133 11.032-2.095 13.442-4.881z" fill="url(#SVGID_1_)" data-original="url(#SVGID_1_)"/></g></svg>
