<?xml version="1.0"?>
<svg xmlns="http://www.w3.org/2000/svg" xmlns:xlink="http://www.w3.org/1999/xlink" xmlns:svgjs="http://svgjs.com/svgjs" version="1.1" width="512" height="512" x="0" y="0" viewBox="0 0 512 512" style="enable-background:new 0 0 512 512" xml:space="preserve" class=""><g><linearGradient id="SVGID_1_" gradientUnits="userSpaceOnUse" x1="39.029" x2="472.971" y1="444.405" y2="10.462"><stop stop-opacity="1" stop-color="#0449a2" offset="0"/><stop stop-opacity="1" stop-color="#2cab16" offset="1"/></linearGradient><path d="m466.826 54.324h-28.342c-3.845-6.818-11.152-11.436-19.522-11.436s-15.678 4.617-19.522 11.436h-354.266c-7.327 0-13.288 5.961-13.288 13.288v237.177c0 4.418 3.582 8 8 8h432.229c4.418 0 8-3.582 8-8v-237.177c-.001-7.327-5.962-13.288-13.289-13.288zm-47.864 4.564c3.529 0 6.401 2.872 6.401 6.401s-2.872 6.401-6.401 6.401-6.401-2.872-6.401-6.401 2.872-6.401 6.401-6.401zm45.152 237.901h-416.228v-226.465h349.253c.247 1.073.571 2.116.967 3.124l-32.981 30.005c-3.034-1.537-6.459-2.409-10.087-2.409-6.287 0-11.974 2.607-16.046 6.793l-25.503-10.967c.012-.304.023-.608.023-.914 0-12.352-10.049-22.4-22.4-22.4-12.352 0-22.401 10.049-22.401 22.4 0 2.18.319 4.285.902 6.279l-30.609 23.241c-3.433-2.141-7.482-3.383-11.817-3.383-12.352 0-22.401 10.049-22.401 22.4 0 12.352 10.049 22.401 22.401 22.401s22.401-10.049 22.401-22.401c0-2.18-.319-4.285-.902-6.279l30.608-23.241c3.433 2.141 7.482 3.383 11.818 3.383 6.287 0 11.974-2.607 16.046-6.793l25.503 10.966c-.012.304-.023.608-.023.914 0 12.352 10.049 22.401 22.4 22.401 12.352 0 22.401-10.049 22.401-22.401 0-2.878-.552-5.628-1.545-8.158l32.981-30.005c3.034 1.537 6.46 2.409 10.087 2.409 10.621 0 19.532-7.432 21.823-17.366h23.329zm-102.676-173.345c0 3.529-2.872 6.401-6.401 6.401s-6.4-2.872-6.4-6.401 2.871-6.401 6.4-6.401 6.401 2.872 6.401 6.401zm-63.926-27.488c0 3.529-2.871 6.401-6.4 6.401s-6.401-2.872-6.401-6.401 2.872-6.4 6.401-6.4 6.4 2.87 6.4 6.4zm-63.924 48.538c0 3.529-2.872 6.401-6.401 6.401s-6.401-2.872-6.401-6.401 2.872-6.4 6.401-6.4 6.401 2.87 6.401 6.4zm232.282-122.056h-419.74c-25.436 0-46.13 20.694-46.13 46.13v262.32c0 25.437 20.694 46.131 46.13 46.131h123.927v44.581h-50.04c-22.341 0-40.517 15.244-40.517 33.98v25.981c0 4.418 3.582 8 8 8h337c4.418 0 8-3.582 8-8v-25.981c0-18.737-18.176-33.98-40.517-33.98h-50.04v-44.581h123.927c25.437 0 46.13-20.694 46.13-46.131v-262.32c0-25.436-20.694-46.13-46.13-46.13zm-49.37 433.143v17.981h-321v-17.981c0-9.747 11.228-17.98 24.517-17.98h271.966c13.289-.001 24.517 8.233 24.517 17.98zm-90.557-33.981h-139.886v-44.581h139.886zm170.057-90.712c0 16.614-13.517 30.131-30.13 30.131h-419.74c-16.614 0-30.13-13.517-30.13-30.131v-262.32c0-16.614 13.517-30.13 30.13-30.13h419.74c16.614 0 30.13 13.517 30.13 30.13zm-189.882-181.955h-30.013c-4.418 0-8 3.582-8 8v108.214c0 4.418 3.582 8 8 8h30.013c4.418 0 8-3.582 8-8v-108.214c0-4.418-3.581-8-8-8zm-8 108.214h-14.013v-92.214h14.013zm71.925-87.745h-30.013c-4.418 0-8 3.582-8 8v87.746c0 4.418 3.582 8 8 8h30.013c4.418 0 8-3.582 8-8v-87.746c0-4.419-3.581-8-8-8zm-8 87.746h-14.013v-71.746h14.013zm71.925-147.584h-30.013c-4.418 0-8 3.582-8 8v147.583c0 4.418 3.582 8 8 8h30.013c4.418 0 8-3.582 8-8v-147.583c0-4.418-3.581-8-8-8zm-8 147.583h-14.013v-131.583h14.013zm-183.775-57.578h-30.012c-4.418 0-8 3.582-8 8v57.578c0 4.418 3.582 8 8 8h30.012c4.418 0 8-3.582 8-8v-57.578c0-4.418-3.581-8-8-8zm-8 57.578h-14.012v-41.578h14.012zm-104.114-121.095c-35.04 0-63.547 28.507-63.547 63.547 0 35.041 28.507 63.548 63.547 63.548 35.041 0 63.548-28.507 63.548-63.548 0-35.039-28.507-63.547-63.548-63.547zm0 111.095c-26.218 0-47.547-21.33-47.547-47.548s21.33-47.547 47.547-47.547 47.548 21.33 47.548 47.547-21.33 47.548-47.548 47.548zm25.664-35.508c.675 5.558-.835 10.653-4.367 14.735-3.136 3.627-7.862 6.273-13.296 7.589v.788c0 4.418-3.582 8-8 8s-8-3.582-8-8v-.943c-8.778-2.417-15.439-8.734-17.583-17.33-1.069-4.287 1.54-8.629 5.827-9.698 4.29-1.068 8.629 1.54 9.698 5.827 1.197 4.8 6.469 6.388 10.592 6.289 3.653-.087 7.215-1.316 8.661-2.988.369-.426.749-.994.585-2.34-.165-1.362-.553-4.553-11.026-6.273-19.054-3.127-22.408-14.106-22.712-20.372-.482-9.919 5.858-18.294 15.958-21.396v-1.077c0-4.418 3.582-8 8-8s8 3.582 8 8v.976c6.966 2.125 12.754 7.119 15.729 14.203 1.71 4.074-.205 8.763-4.279 10.473-4.076 1.711-8.763-.206-10.473-4.279-2.367-5.638-8.292-5.943-11.419-5.232-1.347.306-5.727 1.609-5.535 5.556.046.955.187 3.86 9.323 5.359 14.809 2.431 22.991 9.205 24.317 20.133z" fill="url(#SVGID_1_)" data-original="url(#SVGID_1_)"/></g></svg>
