<?xml version="1.0"?>
<svg xmlns="http://www.w3.org/2000/svg" xmlns:xlink="http://www.w3.org/1999/xlink" xmlns:svgjs="http://svgjs.com/svgjs" version="1.1" width="512" height="512" x="0" y="0" viewBox="0 0 512 512" style="enable-background:new 0 0 512 512" xml:space="preserve"><g><linearGradient id="SVGID_1_" gradientUnits="userSpaceOnUse" x1="34.798" x2="477.202" y1="477.202" y2="34.798"><stop stop-opacity="1" stop-color="#0449a2" offset="0"/><stop stop-opacity="1" stop-color="#2cab16" offset="1"/></linearGradient><path d="m447.089 8h-330.378c-4.418 0-8 3.582-8 8v43.8h-43.8c-4.418 0-8 3.582-8 8v428.2c0 4.418 3.582 8 8 8h330.378c4.418 0 8-3.582 8-8v-43.8h43.8c4.418 0 8-3.582 8-8v-428.2c0-4.418-3.581-8-8-8zm-374.178 480v-412.2h260.851v45.527c0 4.418 3.582 8 8 8h45.527v358.673zm276.851-400.886 26.214 26.214h-26.214zm89.327 349.086h-35.8v-314.872c0-2.122-.843-4.157-2.343-5.657l-53.527-53.527c-1.5-1.5-3.535-2.343-5.657-2.343h-217.051v-35.801h314.378zm-127.793-50.108c0 4.418-3.582 8-8 8h-145.472c-4.418 0-8-3.582-8-8s3.582-8 8-8h145.472c4.418 0 8 3.582 8 8zm17.654-196.501c-1.329-2.78-4.136-4.55-7.218-4.55-2.021 0-3.915.772-5.361 2.081-14.074 6.097-21.633 3.642-31.857.317-8.087-2.629-17.902-5.822-31.869-4.909-4.395-7.653-12.645-12.823-22.086-12.823s-17.692 5.17-22.087 12.824c-13.965-.912-23.782 2.28-31.869 4.909-10.881 3.538-18.743 6.093-34.655-1.601l-.005.011c-1.066-.516-2.247-.809-3.477-.809-3.082 0-5.889 1.77-7.218 4.55l-39.838 83.349c-.515 1.078-.782 2.256-.782 3.45 0 22.343 21.461 40.521 47.84 40.521s47.84-18.178 47.84-40.521c0-1.194-.267-2.373-.782-3.45l-31.819-66.568c2.4.36 4.673.521 6.841.521 7.968 0 14.544-2.138 21.003-4.238 7.201-2.341 14.076-4.575 23.763-4.269 1.247 9.817 8.101 17.903 17.245 20.938v97.212c-24.879 2.638-46.849 17.484-58.554 40.063-1.286 2.48-1.185 5.451.266 7.838s4.042 3.844 6.836 3.844h118.904c2.793 0 5.385-1.457 6.836-3.844s1.552-5.358.266-7.838c-11.701-22.57-33.697-37.433-58.554-40.064v-97.212c9.144-3.036 15.999-11.122 17.245-20.939 9.685-.306 16.563 1.929 23.763 4.271 6.459 2.1 13.035 4.238 21.004 4.238 1.869 0 3.817-.122 5.856-.385l-31.753 66.431c-.515 1.078-.782 2.256-.782 3.45 0 22.343 21.461 40.521 47.84 40.521s47.84-18.178 47.84-40.521c0-1.194-.267-2.373-.782-3.45zm-190.483 22 27.15 56.799h-54.299zm0 89.32c-13.919 0-25.773-6.918-30.091-16.521h60.182c-4.317 9.604-16.171 16.521-30.091 16.521zm136.501 51.372h-88.819c11.034-12.673 27.077-20.158 44.375-20.168l.238.002c17.227.058 33.207 7.54 44.206 20.166zm-44.408-147.663c-5.214 0-9.457-4.242-9.457-9.456s4.242-9.457 9.457-9.457 9.456 4.242 9.456 9.457-4.242 9.456-9.456 9.456zm118.322 63.77h-54.299l27.149-56.799zm-27.15 32.521c-13.919 0-25.773-6.918-30.091-16.521h60.182c-4.317 9.604-16.171 16.521-30.091 16.521z" fill="url(#SVGID_1_)" data-original="url(#SVGID_1_)"/></g></svg>
