<?xml version="1.0" encoding="UTF-8" standalone="no"?>
<svg
   width="4325.3872"
   height="1935.1302"
   version="1.1"
   id="svg28"
   sodipodi:docname="Integrity-Logo-2022-Tall(3).svg"
   inkscape:version="1.1.1 (3bf5ae0d25, 2021-09-20)"
   xmlns:inkscape="http://www.inkscape.org/namespaces/inkscape"
   xmlns:sodipodi="http://sodipodi.sourceforge.net/DTD/sodipodi-0.dtd"
   xmlns="http://www.w3.org/2000/svg"
   xmlns:svg="http://www.w3.org/2000/svg">
  <defs
     id="defs32" />
  <sodipodi:namedview
     id="namedview30"
     pagecolor="#ffffff"
     bordercolor="#666666"
     borderopacity="1.0"
     inkscape:pageshadow="2"
     inkscape:pageopacity="0.0"
     inkscape:pagecheckerboard="0"
     showgrid="true"
     inkscape:zoom="0.13074844"
     inkscape:cx="2971.3548"
     inkscape:cy="921.61711"
     inkscape:window-width="3200"
     inkscape:window-height="1711"
     inkscape:window-x="-9"
     inkscape:window-y="-9"
     inkscape:window-maximized="1"
     inkscape:current-layer="svg28"
     fit-margin-top="0"
     fit-margin-left="0"
     fit-margin-right="0"
     fit-margin-bottom="0">
    <inkscape:grid
       type="xygrid"
       id="grid1837"
       originx="0"
       originy="122.49272" />
  </sodipodi:namedview>
  <path
     style="fill:#05217b;stroke:#05217b;stroke-opacity:1"
     d="m 933.9999,872.49272 16,-8 -2,-2 c 13.0041,-6.065 24.9041,-15.223 37,-22.916 22.2963,-14.18 44.7131,-28.169 67.0001,-42.363 58.865,-37.487 118.587,-73.66 178,-110.269 186.887,-115.158 376.049,-227.53 569,-332.263 77.057,-41.826 154.84,-82.475 235,-118.076 37.51,-16.66 83.03,-39.92 125,-39.481 41.05,0.429 84.06,22.172 121,38.085 81.49,35.105 160.08,77.171 238,119.472 192.96,104.75 382.1,217.097 569,332.263 59.08,36.404 118.41,72.445 177,109.633 33.08,20.998 66.5,47.399 102,63.915 l -2,2 16,7 c -27.67,-28.344 -63.07,-51.456 -94,-76.2 -64.96,-51.966 -130.44,-103.268 -196,-154.47 -189.66,-148.126 -380.7,-296.616 -580,-431.668 -75.96,-51.471 -151.66,-103.46239 -232,-147.99289 -33.52,-18.579205 -75.57,-45.32035 -115,-46.61155 -39.35,-1.28875 -78.27,22.522445 -112,40.163845 -81.79,42.773505 -159.335,95.664595 -235,148.326595 -205.71,143.171 -405.499,294.532 -603,448.782 -62.899,49.125 -125.679,98.413 -188.0001,148.27 l -58,46.4 c -11.071,8.857 -23.6631,17.286 -33,28 z"
     id="path4" />
  <path
     style="fill:#05217b;stroke:none"
     d="m 50.55,1141.7574 c -7.09,4.6893 -3.55,24.9143 -3.55,32.3728 v 97 257 72 c 0,8.266 -2.62,22.059 1.27,29.544 3.44,6.638 15.62,4.456 21.73,4.456 h 50 c 6.39,0 15.9,1.664 21.59,-1.818 7.97,-4.875 4.41,-24.192 4.41,-32.182 v -95 -253 -74 c 0,-9.6422 2.56,-23.694 -1.07,-32.741 -2.99,-7.4466 -14.57,-5.259 -20.93,-5.259 H 72 c -6.06,0 -16.17,-1.8715 -21.45,1.6272 M 311,1140.1302 v 341 102 c 0,13.12 -3.59,32.448 0.82,44.843 2.89,8.12 14.43,6.157 21.18,6.157 h 53 c 6.02,0 16.16,1.812 21.1,-2.452 4.04,-3.495 2.9,-10.798 2.9,-15.548 v -42 -169 c 0,-16.999 -0.1,-34.002 0.01,-51 0.03,-4.693 -0.08,-15.065 7.13,-14.476 7.96,0.65 16.61,13.227 21.86,18.476 l 54,54 159,159 42,42 c 6.41,6.415 13.44,16.191 22,19.731 9.92,4.102 25.38,1.269 36,1.269 v -342 -101 c 0,-13.152 3.58,-32.4595 -0.9,-44.8773 -2.95,-8.1696 -14.26,-6.1227 -21.1,-6.1227 h -53 c -6.17,0 -16.2,-1.8151 -21.38,2.2693 -4.52,3.5633 -3.62,10.6424 -3.62,15.7307 v 41 171 52 c -0.01,4.571 0.96,15.365 -6.12,15.365 -7.65,0 -16.94,-13.42 -21.88,-18.365 l -56,-56 -162,-162 -41,-41 c -6.14,-6.1391 -12.8,-15.3409 -21,-18.7307 -9.18,-3.7987 -23.18,-1.2693 -33,-1.2693 m 589.26,1.2693 c -6.94,3.3221 -5.26,13.4472 -5.26,19.7307 v 52 c 0,5.785 -1.4,14.787 4.41,18.373 7.82,4.833 24.63,1.627 33.59,1.627 h 85 c 8.95,0 33.98,-4.321 39.37,4.409 3.79,6.123 1.63,17.654 1.63,24.591 v 59 228 58 c 0,6.627 -2.03,17.764 2.36,23.319 4.44,5.624 15.37,3.681 21.64,3.681 h 47 c 6.99,0 16.19,1.528 22.84,-0.904 8.74,-3.19 6.16,-16.838 6.16,-24.096 v -71 -204 -63 c 0,-9.605 -1.92,-21.604 0.62,-30.91 2.95,-10.798 21.96,-7.09 30.38,-7.09 h 96 c 8.44,0 33.41,4.366 36.38,-6.157 1.88,-6.646 0.62,-14.987 0.62,-21.843 v -43 c 0,-5.7314 1.96,-16.5264 -3.62,-20.2762 -6.39,-4.2943 -19.98,-1.7238 -27.38,-1.7238 h -71 -229 -64 c -8.04,0 -20.35,-2.2719 -27.74,1.2693 m 566.92,-0.2719 c -6.3,2.3576 -6.14,9.3499 -6.18,15.0026 -0.07,13.9991 0,28.001 0,42 v 179 183 49 c 0,6.032 -1.63,15.201 1.72,20.544 3.99,6.347 14.95,4.456 21.28,4.456 h 60 200 53 c 6.58,0 16.71,1.811 22.54,-1.818 5.97,-3.707 4.46,-13.229 4.46,-19.182 v -53 c 0,-6.584 1.02,-16.318 -7.1,-18.454 -17.7,-4.65 -41.6,-0.546 -59.9,-0.546 h -128 -47 c -5.82,-10e-4 -13.82,1.172 -18.18,-3.62 -3.83,-4.202 -2.82,-11.154 -2.82,-16.38 v -39 -33 c 0,-4.572 -0.86,-10.562 1.63,-14.651 5.15,-8.474 28.75,-4.349 37.37,-4.349 h 113 c 9.84,0 41.24,5.222 44.45,-7.09 2.74,-10.507 0.55,-24.079 0.55,-34.91 v -34 c 0,-4.362 0.85,-10.539 -2.27,-14.096 -3.02,-3.44 -8.61,-2.887 -12.73,-2.902 h -32 -107 c -9.78,0 -31.4,4.021 -39.38,-2.269 -5.94,-4.681 -3.62,-17.097 -3.62,-23.731 0,-22.361 -2.83,-46.837 0.26,-68.975 1.13,-8.13 7.79,-8.971 14.74,-9.019 15,-0.105 30,-0.01 45,-0.01 h 150 36 c 4.57,0 11.35,0.949 14.73,-2.904 3.91,-4.457 2.27,-13.63 2.27,-19.096 v -51 c 0,-5.9723 1.8,-16.3901 -5.26,-19.0963 -8.05,-3.0888 -20.2,-0.9037 -28.74,-0.9037 h -62 -182 -54 c -7.57,0 -17.63,-1.692 -24.82,0.9974 m 725.82,-0.5454 c -38.62,3.5355 -75.08,11.6098 -109,31.2854 -136.81,79.3696 -162.79,279.2086 -50.86,391.1266 65.55,65.55 164.57,85.386 252.86,61.396 28.09,-7.633 54.91,-19.568 79,-35.96 7.81,-5.312 19.77,-11.805 24.28,-20.394 5.38,-10.268 1.72,-29.505 1.72,-40.906 v -99 -65 c 0,-6.595 2.37,-19.194 -3.55,-23.825 -7.06,-5.523 -24.88,-2.175 -33.45,-2.175 h -90 c -8.24,0 -29.85,-3.809 -35.73,2.904 -3.91,4.457 -2.27,13.63 -2.27,19.096 v 50 c 0,5.792 -1.99,16.542 4.35,19.731 10.22,5.143 30.32,1.267 41.65,1.269 4.8,10e-4 11.41,-0.99 15.45,2.175 5.3,4.145 3.55,13.94 3.55,19.825 v 44 c 0,7.856 0.86,15.443 -6.12,20.669 -15.15,11.334 -36.57,14.686 -54.88,16.472 -52.21,5.092 -106.34,-10.72 -138.75,-54.141 -47,-62.976 -36.14,-162.948 26.75,-210.994 43.07,-32.906 103.12,-35.447 153,-18.321 12.31,4.225 23.92,9.845 35,16.653 5.18,3.182 11.55,9.256 18,9.025 7.09,-0.254 12.55,-8.664 16.9,-13.363 11.04,-11.935 21.91,-24.03 32.92,-36 4.35,-4.728 11.57,-10.505 13.12,-16.991 1.41,-5.892 -3.9,-10.085 -7.97,-13.318 -9.77,-7.773 -20.17,-14.569 -30.97,-20.8181 -45.4,-26.2798 -102.58,-39.2197 -155,-34.4209 m 368.26,0.8173 c -8.2,3.9292 -5.26,19.3578 -5.26,26.7307 v 79 291 70 c 0,6.814 -2.49,19.96 4.41,24.182 5.89,3.608 15.97,1.818 22.59,1.818 h 52 c 7.06,0 17.98,1.714 20.38,-7.09 3.71,-13.596 0.62,-31.837 0.62,-45.91 v -97 c 0,-13.3 -4.51,-36.667 1.27,-48.741 3.42,-7.15 14.28,-5.259 20.73,-5.259 h 48 c 8.12,0 16.18,-0.974 21.69,6.157 10.39,13.446 17.79,30.176 26.34,44.843 19.03,32.605 37.67,65.434 56.76,98 7.21,12.293 14.21,24.708 21.42,37 3.19,5.441 6.22,13.085 11.99,16.276 5.3,2.931 12.97,1.724 18.8,1.724 h 40 c 12.04,0 32.79,3.994 43.74,-1.269 6.31,-3.037 4.3,-9.805 1.75,-14.731 -6.51,-12.574 -14.04,-24.707 -21.06,-37 l -64.57,-113 c -5.72,-10.001 -11.4,-20.021 -17.15,-30 -2.51,-4.338 -6.96,-9.72 -7.13,-14.92 -0.23,-7.204 10.35,-9.53 15.42,-11.93 15.5,-7.336 29.84,-17.953 40.8,-31.152 26.58,-32.018 31.29,-74.863 29.06,-114.998 -0.76,-13.862 -3.78,-27.952 -8.48,-41 -31.94,-88.7877 -137.27,-84 -214.38,-84 h -50 -77 c -9.3,0 -24.22,-2.8124 -32.74,1.2693 m 537.15,0 c -8.09,4.1361 -4.41,25.1251 -4.41,32.7307 v 100 258 69 c 0,7.927 -2.58,21.616 1.72,28.591 3.95,6.391 14.95,4.409 21.28,4.409 h 50 c 6.43,0 15.71,1.615 21.59,-1.452 8.1,-4.223 4.41,-24.878 4.41,-32.548 v -101 -260 -68 c 0,-7.3788 2.6,-21.0746 -1.63,-27.4542 -3.79,-5.7245 -15.52,-3.5458 -21.37,-3.5458 h -50 c -6.34,0 -15.79,-1.6957 -21.59,1.2693 m 239.88,0 c -6.86,3.3307 -5.29,13.4856 -5.29,19.7307 v 52 c 0,5.771 -1.29,14.673 4.46,18.276 7.82,4.911 24.56,1.724 33.54,1.724 h 85 c 9.49,0 33.54,-4.327 39.73,4.349 4.37,6.119 2.27,17.528 2.27,24.651 v 61 225 59 c 0,6.427 -2.11,17.689 1.72,23.233 3.99,5.766 15.29,3.767 21.28,3.767 h 49 c 6.54,0 15.73,1.591 21.79,-1.269 7.74,-3.656 5.21,-16.797 5.21,-23.731 v -72 -203 -62 c 0,-9.671 -1.86,-21.577 0.62,-30.965 3.09,-11.7 21.29,-8.035 30.38,-8.035 h 96 c 8.35,0 33.62,4.35 36.45,-6.157 1.8,-6.663 0.55,-14.983 0.55,-21.843 v -43 c 0,-5.688 2.02,-16.5894 -3.55,-20.2762 -6.46,-4.2797 -19.99,-1.7238 -27.45,-1.7238 h -71 -229 -64 c -8,0 -20.37,-2.2926 -27.71,1.2693 m 545.01,0 c -12.24,5.9852 7.42,25.8398 11.7,31.7307 21.38,29.435 43.13,58.599 64.55,88 22.63,31.066 45.58,61.908 68.18,93 8.18,11.259 23.69,25.639 25.08,40 1.83,18.995 0.19,38.915 0.19,58 v 114 46 c 0,5.348 -1.46,13.66 1.72,18.319 3.92,5.725 15.36,3.681 21.28,3.681 h 49 c 6.54,0 15.73,1.591 21.79,-1.269 5.99,-2.829 5.2,-10.183 5.21,-15.731 v -45 -131 c 0,-15.421 -4.87,-41.018 2.03,-55 10.48,-21.218 29.29,-40.968 43.36,-60 28.49,-38.558 56.83,-77.249 85.06,-116 9.5,-13.034 19.09,-26 28.64,-39 4.49,-6.1142 11.03,-12.7692 13.57,-19.9944 4.52,-12.9075 -13.21,-11.0056 -20.66,-11.0056 h -60 c -7.61,0 -19.07,-2.0856 -25.74,2.2693 -10.95,7.1457 -19.1,24.2494 -26.71,34.7307 -19.38,26.679 -38.75,53.361 -58.18,80 -7.05,9.656 -13.95,19.426 -21.11,28.992 -2.35,3.134 -5.67,8.329 -10.14,8.287 -5.99,-0.056 -10.85,-10.1 -13.83,-14.279 l -32,-45 c -15.92,-22.289 -31.66,-44.71 -47.58,-67 -5.73,-8.0228 -12.44,-22.6481 -21.81,-26.7307 -5.79,-2.5226 -13.73,-1.2693 -19.9,-1.2693 h -42 c -11.46,0 -31.3,-3.8158 -41.7,1.2693 z"
     id="path8" />
  <path
     style="fill:#ffffff;fill-opacity:1;stroke:none"
     d="m 2661.21,1234.3992 c -6.98,3.297 -5.21,13.433 -5.21,19.731 v 59 c 0,6.061 -2.27,18.318 3.62,22.276 8.97,6.026 31.79,1.724 42.38,1.724 h 75 c 17.7,0 35.9,0.758 52,-7.917 32.04,-17.261 33.44,-70.098 1,-87.589 -16,-8.628 -35.33,-8.494 -53,-8.494 h -72 c -12.13,0 -32.72,-3.955 -43.79,1.269 z"
     id="path10" />
  <path
     style="fill:#054ba9;stroke:#054ba9;stroke-opacity:1"
     d="m 947.9999,862.49272 v 1 c 11.0595,-2.982 21.123,-10.356 31,-16 18.35,-10.486 36.5719,-21.198 55,-31.548 63.0741,-35.426 125.7701,-71.521 189.0001,-106.674 203.624,-113.207 407.576,-227.888 618,-328.083 69.88,-33.274 139.45,-67.871 212,-95.132 34.59,-12.997 72.44,-29.333 110,-28.53 34.69,0.741 71.05,17.118 103,29.277 69.61,26.494 137.11,58.81 204,91.419 207.42,101.116 410.99,210.953 612,324.286 64.34,36.274 128.87,72.197 193,108.842 l 59,33.714 c 10.05,5.745 20.57,13.974 32,16.429 -27.98,-23.448 -63.16,-40.95 -94,-60.452 -64.62,-40.859 -129.76,-80.92 -195,-120.772 -191.08,-116.714 -383.28,-232.85 -581,-338.069 -74.2,-39.486 -148.69,-78.576 -226,-111.707 -34.05,-14.591 -77,-35.879 -115,-33.392 -46.29,3.03 -92.24,26.303 -134,44.835 -85.8,38.074 -168.826,82.828 -251,128.105 -191.617,105.579 -379.651,217.706 -566,332.287 -85.675,52.68 -169.5881,108.772 -256.0001,160.165 z"
     id="path12" />
  <path
     style="fill:#2dad17;stroke:none"
     d="m 936.9999,870.49272 v 1 c 28.0093,-5.628 55.4574,-15.949 83,-23.548 66.3661,-18.312 132.5711,-37.181 199.0001,-55.276 192.136,-52.336 385.23,-101.811 580,-143.412 74.227,-15.855 148.84,-30.595 224,-41.336 41.18,-5.885 83.33,-12.227 125,-12.424 123.36,-0.582 247.82,26.489 368,51.973 195.87,41.532 389.85,91.586 583,144.199 61.78,16.827 123.44,34.093 185,51.681 31.38,8.965 63.02,20.716 95,27.143 -13.21,-9.55 -30.99,-14.457 -46,-20.624 l -88,-36 c -99,-40.664 -198.8,-79.594 -299,-117.188 -159.14,-59.705 -319.5,-117.335 -483,-164.045 -92.42,-26.404 -191.2,-56.094 -288,-58.11 -71.12,-1.482 -142.33,13.925 -211,31.092 -81.213,20.303 -161.362,44.098 -241,69.858 -265.926,86.016 -528.535,186.3 -786.0001,295.017 z"
     id="path16" />
  <path
     style="fill:#2dad17;stroke:none"
     d="m 1615,1825.1302 c -31,11.644 -47.47,51.362 -23.27,77.69 21.42,23.304 67.21,21.531 89.27,0.31 h 1 c 3.42,4.613 7.14,10.541 12.29,13.373 9.26,5.095 27.32,1.627 37.71,1.627 -7.24,-12.523 -23.66,-23.107 -28.19,-36.728 -2.96,-8.934 18.71,-29.604 6.8,-36.656 -3.17,-1.883 -7.11,-2.802 -10.61,-3.921 l -12,-3.695 -7,19 -21,-27 c 7.13,-3.892 14.17,-8.795 19.43,-15.06 3.38,-4.029 6.06,-8.849 7.44,-13.94 13.56,-50.172 -76.28,-62.636 -85.2,-17 -1.09,5.551 -0.76,11.52 0.55,17 2.22,9.332 7.65,17.071 12.78,25 m -1117,93 c 8.75,0 26.81,3.443 34.21,-1.627 5.64,-3.871 8.27,-16.056 9.79,-22.373 h 48 c 6.52,0 15.46,-1.553 21.63,0.818 8.07,3.098 6.85,15.665 12.69,21.007 6.39,5.839 26.41,2.175 34.68,2.175 -2.94,-13.714 -9.8,-27.005 -15,-40 l -28.4,-71 c -5.58,-13.96 -10.08,-36.989 -20.14,-48.182 -4.68,-5.204 -23.82,-4.085 -30.12,-2.272 -4.62,1.329 -6.12,6.464 -7.74,10.457 -3.77,9.316 -7.47,18.664 -11.2,27.997 l -31.6,79 c -5.74,14.351 -13.18,28.956 -16.8,44 m 226,-162 v 82 c 0,16.988 -1.52,33.782 7.5,49 25.69,43.349 105.07,42.222 127.45,-4 6.91,-14.281 5.05,-30.608 5.05,-46 v -81 h -33 v 75 c 0,12.542 1.86,26.764 -5,37.965 -13.94,22.787 -53.63,20.817 -65.43,-2.965 -5.48,-11.049 -3.57,-25.058 -3.57,-37 v -73 h -33 m 218,0 v 162 c 33.51,0 78.2,7.784 108,-10.613 41.74,-25.767 41.55,-112.843 1,-139.548 -29.58,-19.482 -75.35,-11.839 -109,-11.839 m 215,0 v 162 h 33 v -162 h -33 m 100,0 v 31 h 54 v 131 h 33 v -131 h 54 v -31 h -141 m 657,162 h 36 c 2.03,-6.552 4.21,-17.361 9.78,-21.825 4.34,-3.485 12.03,-2.175 17.22,-2.175 h 35 c 5.04,0 11.93,-1.135 16.58,1.175 8.25,4.101 5.44,18.529 13.96,22.007 8.96,3.653 23.84,0.818 33.46,0.818 -14.62,-40.795 -32.1,-80.762 -48.2,-121 l -11.6,-28.999 c -1.62,-4.02 -3.11,-9.471 -7.57,-11.183 -5.96,-2.289 -26.4,-3.19 -30.81,2 -10.3,12.106 -14.92,35.426 -20.82,50.182 -14.3,35.757 -32.51,71.952 -43,109 m 335,-46 h -1 c -15.95,11.636 -35.9,16.839 -55,9.749 -28.24,-10.485 -37.23,-47.606 -21.26,-71.744 11.85,-17.9 35.21,-23.844 55.26,-18.141 6.4,1.82 15.37,9.487 21.97,8.323 8.2,-1.447 16.73,-15.276 22.03,-21.187 -31.65,-35.524 -95.04,-27.351 -123.37,7 -19.71,23.901 -22.67,60.284 -9.52,88 14.21,29.932 44.07,44.143 75.89,43.996 14.99,-0.07 29.95,-3.558 43,-11.081 3.77,-2.177 11.58,-5.891 11.56,-11.071 -0.04,-7.761 -14.43,-18.67 -19.56,-23.844 m 232,25 v -1 l -22,-24 h -1 c -15.9,11.603 -35.96,16.813 -55,9.749 -28.07,-10.412 -37.55,-47.654 -21.3,-71.744 12.01,-17.822 35.14,-23.876 55.3,-18.141 6.4,1.82 15.37,9.487 21.97,8.323 8.24,-1.455 16.61,-15.317 22.03,-21.187 -26.49,-29.726 -82.84,-29.826 -112,-4.619 -32.87,28.409 -39.5,81.747 -10.53,115.617 8.03,9.387 18.12,17.19 29.53,22.019 13.73,5.812 29.27,6.98 44,5.702 18.67,-1.62 34.38,-9.371 49,-20.719 m 146,-140.528 c -22.18,1.774 -42.53,9.263 -57.44,26.546 -33.65,39.003 -22.75,105.839 25.44,127.826 14.49,6.613 30.24,8.14 46,6.949 84.03,-6.346 95.94,-132.259 17,-157.395 -9.72,-3.095 -20.8,-4.743 -31,-3.926 m 149,-0.472 v 79 c 0,15.624 -1.65,32.397 5.07,47 21.77,47.312 101.85,48.523 127.91,5 9.18,-15.34 8.02,-32.792 8.02,-50 v -81 h -34 v 75 c 0,11.956 2.16,26.196 -4.03,36.99 -13.31,23.23 -54.58,22.703 -66.16,-1.991 -5.49,-11.695 -3.81,-26.462 -3.81,-38.999 v -71 h -33 m 218,0 v 162 h 33 v -98 l 72,72 c 12.39,12.389 21.45,25.988 40,26 v -162 h -33 v 100 l -74,-74 c -11.29,-11.294 -20.91,-25.938 -38,-26 m 213,0 v 31 h 54 v 131 h 33 v -131 h 53 v -31 h -140 m 207,0 v 162 h 33 v -162 h -33 m 108,0 v 162 h 34 v -98 l 72,72 c 11.84,11.842 21.17,25.972 39,26 v -162 h -33 v 100 l -74,-74 c -11.29,-11.294 -20.91,-25.938 -38,-26 m 353,65 h -55 v 31 h 22 c 0,7.007 2.33,19.225 -1.63,25.307 -7.99,12.283 -34.45,8.212 -45.37,3.424 -24.29,-10.654 -33.92,-42.574 -22.02,-65.731 10.73,-20.876 35.06,-28.991 57.02,-23.42 6.71,1.702 16.34,9.591 23,8.554 8.4,-1.306 18.56,-16.022 22,-23.134 -24.01,-16.599 -50.79,-25.017 -80,-18.301 -48.82,11.222 -72.5,66.267 -54.33,111.301 15.66,38.847 59.28,55.196 98.33,45.581 11.08,-2.727 25.86,-7.626 33.18,-16.962 4.58,-5.832 2.82,-15.673 2.82,-22.619 z"
     id="path20" />
  <path
     style="fill:#ffffff;fill-opacity:1;stroke:none"
     d="m 1644,1810.1302 c 3.37,-2.262 6.81,-4.538 9.65,-7.463 1.84,-1.892 3.41,-4.036 4.27,-6.556 6.86,-20.236 -31.14,-20.79 -25.46,-1.981 0.77,2.528 2.17,4.846 3.68,6.986 2.31,3.264 5.1,6.133 7.86,9.014 m 986,-22.265 c -49.68,0.959 -64.71,73.545 -20,94.876 7.29,3.478 15,4.519 23,4.353 61.64,-1.285 58.78,-100.421 -3,-99.229 m -1655,2.265 v 95 c 17.52,0 39.62,3.597 54.94,-6.751 23.86,-16.117 23.32,-66.922 -0.96,-82.343 -15.11,-9.597 -36.9,-5.906 -53.98,-5.906 m -396,12 -23,58 h 46 c -5.8,-18.752 -12.77,-41.229 -23,-58 m 1416,0 -22,58 h 45 c -4.95,-18.426 -12.58,-41.988 -23,-58 m -333,80 -29,-37 c -19.17,6.066 -31,36.104 -7.99,45.968 13.31,5.709 26.09,-1.928 36.99,-8.968 z"
     id="path22" />
  <path
     style="fill:#05217b;stroke:none"
     d="m 502,1895.1302 3,2 z"
     id="path24" />
  <path
     style="fill:#1b5d51;stroke:none"
     d="m 0,1932.1302 4,3 z"
     id="path26" />
</svg>
