<?xml version="1.0" encoding="UTF-8" standalone="no"?>
<svg
   width="6771"
   height="860"
   version="1.1"
   id="svg28"
   sodipodi:docname="Integrity-Logo-2022-Wide (3).svg"
   inkscape:version="1.1.1 (3bf5ae0d25, 2021-09-20)"
   xmlns:inkscape="http://www.inkscape.org/namespaces/inkscape"
   xmlns:sodipodi="http://sodipodi.sourceforge.net/DTD/sodipodi-0.dtd"
   xmlns="http://www.w3.org/2000/svg"
   xmlns:svg="http://www.w3.org/2000/svg">
  <defs
     id="defs32" />
  <sodipodi:namedview
     id="namedview30"
     pagecolor="#ffffff"
     bordercolor="#666666"
     borderopacity="1.0"
     inkscape:pageshadow="2"
     inkscape:pageopacity="0.0"
     inkscape:pagecheckerboard="0"
     showgrid="false"
     inkscape:zoom="0.13074844"
     inkscape:cx="-447.42407"
     inkscape:cy="1464.6446"
     inkscape:window-width="3200"
     inkscape:window-height="1711"
     inkscape:window-x="-9"
     inkscape:window-y="-9"
     inkscape:window-maximized="1"
     inkscape:current-layer="svg28" />
  <path
     style="fill:#05217b;stroke:#05217b;stroke-opacity:1"
     d="M0 860L16 852L14 850C27.0041 843.935 38.9041 834.777 51 827.084C73.2963 812.904 95.7131 798.915 118 784.721C176.865 747.234 236.587 711.061 296 674.452C482.887 559.294 672.049 446.922 865 342.189C942.057 300.363 1019.84 259.714 1100 224.113C1137.51 207.453 1183.03 184.193 1225 184.632C1266.05 185.061 1309.06 206.804 1346 222.717C1427.49 257.822 1506.08 299.888 1584 342.189C1776.96 446.939 1966.1 559.286 2153 674.452C2212.08 710.856 2271.41 746.897 2330 784.085C2363.08 805.083 2396.5 831.484 2432 848L2430 850L2446 857C2418.33 828.656 2382.93 805.544 2352 780.8C2287.04 728.834 2221.56 677.532 2156 626.33C1966.34 478.204 1775.3 329.714 1576 194.662C1500.04 143.191 1424.34 91.1996 1344 46.6691C1310.48 28.0899 1268.43 1.34875 1229 0.0575562C1189.65 -1.2312 1150.73 22.58 1117 40.2214C1035.21 82.9949 957.665 135.886 882 188.548C676.29 331.719 476.501 483.08 279 637.33C216.101 686.455 153.321 735.743 91 785.6L33 832C21.929 840.857 9.33687 849.286 0 860z"
     id="path4" />
  <path
     style="fill:#05217b; stroke:none;"
     d="M2495.55 66.6272C2488.46 71.3165 2492 91.5415 2492 99L2492 196L2492 453L2492 525C2492 533.266 2489.38 547.059 2493.27 554.544C2496.71 561.182 2508.89 559 2515 559L2565 559C2571.39 559 2580.9 560.664 2586.59 557.182C2594.56 552.307 2591 532.99 2591 525L2591 430L2591 177L2591 103C2591 93.3578 2593.56 79.306 2589.93 70.259C2586.94 62.8124 2575.36 65 2569 65L2517 65C2510.94 65 2500.83 63.1285 2495.55 66.6272M2756 65L2756 406L2756 508C2756 521.12 2752.41 540.448 2756.82 552.843C2759.71 560.963 2771.25 559 2778 559L2831 559C2837.02 559 2847.16 560.812 2852.1 556.548C2856.14 553.053 2855 545.75 2855 541L2855 499L2855 330C2855 313.001 2854.9 295.998 2855.01 279C2855.04 274.307 2854.93 263.935 2862.14 264.524C2870.1 265.174 2878.75 277.751 2884 283L2938 337L3097 496L3139 538C3145.41 544.415 3152.44 554.191 3161 557.731C3170.92 561.833 3186.38 559 3197 559L3197 217L3197 116C3197 102.848 3200.58 83.5405 3196.1 71.1227C3193.15 62.9531 3181.84 65 3175 65L3122 65C3115.83 65 3105.8 63.1849 3100.62 67.2693C3096.1 70.8326 3097 77.9117 3097 83L3097 124L3097 295L3097 347C3096.99 351.571 3097.96 362.365 3090.88 362.365C3083.23 362.365 3073.94 348.945 3069 344L3013 288L2851 126L2810 85C2803.86 78.8609 2797.2 69.6591 2789 66.2693C2779.82 62.4706 2765.82 65 2756 65M3345.26 66.2693C3338.32 69.5914 3340 79.7165 3340 86L3340 138C3340 143.785 3338.6 152.787 3344.41 156.373C3352.23 161.206 3369.04 158 3378 158L3463 158C3471.95 158 3496.98 153.679 3502.37 162.409C3506.16 168.532 3504 180.063 3504 187L3504 246L3504 474L3504 532C3504 538.627 3501.97 549.764 3506.36 555.319C3510.8 560.943 3521.73 559 3528 559L3575 559C3581.99 559 3591.19 560.528 3597.84 558.096C3606.58 554.906 3604 541.258 3604 534L3604 463L3604 259L3604 196C3604 186.395 3602.08 174.396 3604.62 165.09C3607.57 154.292 3626.58 158 3635 158L3731 158C3739.44 158 3764.41 162.366 3767.38 151.843C3769.26 145.197 3768 136.856 3768 130L3768 87C3768 81.2686 3769.96 70.4736 3764.38 66.7238C3757.99 62.4295 3744.4 65 3737 65L3666 65L3437 65L3373 65C3364.96 65 3352.65 62.7281 3345.26 66.2693M3912.18 65.9974C3905.88 68.355 3906.04 75.3473 3906 81C3905.93 94.9991 3906 109.001 3906 123L3906 302L3906 485L3906 534C3906 540.032 3904.37 549.201 3907.72 554.544C3911.71 560.891 3922.67 559 3929 559L3989 559L4189 559L4242 559C4248.58 559 4258.71 560.811 4264.54 557.182C4270.51 553.475 4269 543.953 4269 538L4269 485C4269 478.416 4270.02 468.682 4261.9 466.546C4244.2 461.896 4220.3 466 4202 466L4074 466L4027 466C4021.18 465.999 4013.18 467.172 4008.82 462.38C4004.99 458.178 4006 451.226 4006 446L4006 407L4006 374C4006 369.428 4005.14 363.438 4007.63 359.349C4012.78 350.875 4036.38 355 4045 355L4158 355C4167.84 355 4199.24 360.222 4202.45 347.91C4205.19 337.403 4203 323.831 4203 313L4203 279C4203 274.638 4203.85 268.461 4200.73 264.904C4197.71 261.464 4192.12 262.017 4188 262.002L4156 262L4049 262C4039.22 262 4017.6 266.021 4009.62 259.731C4003.68 255.05 4006 242.634 4006 236C4006 213.639 4003.17 189.163 4006.26 167.025C4007.39 158.895 4014.05 158.054 4021 158.006C4036 157.901 4051 158 4066 158L4216 158L4252 158C4256.57 157.996 4263.35 158.949 4266.73 155.096C4270.64 150.639 4269 141.466 4269 136L4269 85C4269 79.0277 4270.8 68.6099 4263.74 65.9037C4255.69 62.8149 4243.54 65 4235 65L4173 65L3991 65L3937 65C3929.43 65 3919.37 63.308 3912.18 65.9974M4638 65.452C4599.38 68.9875 4562.92 77.0618 4529 96.7374C4392.19 176.107 4366.21 375.946 4478.14 487.864C4543.69 553.414 4642.71 573.25 4731 549.26C4759.09 541.627 4785.91 529.692 4810 513.3C4817.81 507.988 4829.77 501.495 4834.28 492.906C4839.66 482.638 4836 463.401 4836 452L4836 353L4836 288C4836 281.405 4838.37 268.806 4832.45 264.175C4825.39 258.652 4807.57 262 4799 262L4709 262C4700.76 262 4679.15 258.191 4673.27 264.904C4669.36 269.361 4671 278.534 4671 284L4671 334C4671 339.792 4669.01 350.542 4675.35 353.731C4685.57 358.874 4705.67 354.998 4717 355C4721.8 355.001 4728.41 354.01 4732.45 357.175C4737.75 361.32 4736 371.115 4736 377L4736 421C4736 428.856 4736.86 436.443 4729.88 441.669C4714.73 453.003 4693.31 456.355 4675 458.141C4622.79 463.233 4568.66 447.421 4536.25 404C4489.25 341.024 4500.11 241.052 4563 193.006C4606.07 160.1 4666.12 157.559 4716 174.685C4728.31 178.91 4739.92 184.53 4751 191.338C4756.18 194.52 4762.55 200.594 4769 200.363C4776.09 200.109 4781.55 191.699 4785.9 187C4796.94 175.065 4807.81 162.97 4818.82 151C4823.17 146.272 4830.39 140.495 4831.94 134.009C4833.35 128.117 4828.04 123.924 4823.97 120.691C4814.2 112.918 4803.8 106.122 4793 99.8729C4747.6 73.5931 4690.42 60.6532 4638 65.452M5006.26 66.2693C4998.06 70.1985 5001 85.6271 5001 93L5001 172L5001 463L5001 533C5001 539.814 4998.51 552.96 5005.41 557.182C5011.3 560.79 5021.38 559 5028 559L5080 559C5087.06 559 5097.98 560.714 5100.38 551.91C5104.09 538.314 5101 520.073 5101 506L5101 409C5101 395.7 5096.49 372.333 5102.27 360.259C5105.69 353.109 5116.55 355 5123 355L5171 355C5179.12 355 5187.18 354.026 5192.69 361.157C5203.08 374.603 5210.48 391.333 5219.03 406C5238.06 438.605 5256.7 471.434 5275.79 504C5283 516.293 5290 528.708 5297.21 541C5300.4 546.441 5303.43 554.085 5309.2 557.276C5314.5 560.207 5322.17 559 5328 559L5368 559C5380.04 559 5400.79 562.994 5411.74 557.731C5418.05 554.694 5416.04 547.926 5413.49 543C5406.98 530.426 5399.45 518.293 5392.43 506L5327.86 393C5322.14 382.999 5316.46 372.979 5310.71 363C5308.2 358.662 5303.75 353.28 5303.58 348.08C5303.35 340.876 5313.93 338.55 5319 336.15C5334.5 328.814 5348.84 318.197 5359.8 304.998C5386.38 272.98 5391.09 230.135 5388.86 190C5388.1 176.138 5385.08 162.048 5380.38 149C5348.44 60.2123 5243.11 65 5166 65L5116 65L5039 65C5029.7 65 5014.78 62.1876 5006.26 66.2693M5543.41 66.2693C5535.32 70.4054 5539 91.3944 5539 99L5539 199L5539 457L5539 526C5539 533.927 5536.42 547.616 5540.72 554.591C5544.67 560.982 5555.67 559 5562 559L5612 559C5618.43 559 5627.71 560.615 5633.59 557.548C5641.69 553.325 5638 532.67 5638 525L5638 424L5638 164L5638 96C5638 88.6212 5640.6 74.9254 5636.37 68.5458C5632.58 62.8213 5620.85 65 5615 65L5565 65C5558.66 65 5549.21 63.3043 5543.41 66.2693M5783.29 66.2693C5776.43 69.6 5778 79.7549 5778 86L5778 138C5778 143.771 5776.71 152.673 5782.46 156.276C5790.28 161.187 5807.02 158 5816 158L5901 158C5910.49 158 5934.54 153.673 5940.73 162.349C5945.1 168.468 5943 179.877 5943 187L5943 248L5943 473L5943 532C5943 538.427 5940.89 549.689 5944.72 555.233C5948.71 560.999 5960.01 559 5966 559L6015 559C6021.54 559 6030.73 560.591 6036.79 557.731C6044.53 554.075 6042 540.934 6042 534L6042 462L6042 259L6042 197C6042 187.329 6040.14 175.423 6042.62 166.035C6045.71 154.335 6063.91 158 6073 158L6169 158C6177.35 158 6202.62 162.35 6205.45 151.843C6207.25 145.18 6206 136.86 6206 130L6206 87C6206 81.312 6208.02 70.4106 6202.45 66.7238C6195.99 62.4441 6182.46 65 6175 65L6104 65L5875 65L5811 65C5803 65 5790.63 62.7074 5783.29 66.2693M6328.3 66.2693C6316.06 72.2545 6335.72 92.1091 6340 98C6361.38 127.435 6383.13 156.599 6404.55 186C6427.18 217.066 6450.13 247.908 6472.73 279C6480.91 290.259 6496.42 304.639 6497.81 319C6499.64 337.995 6498 357.915 6498 377L6498 491L6498 537C6498 542.348 6496.54 550.66 6499.72 555.319C6503.64 561.044 6515.08 559 6521 559L6570 559C6576.54 559 6585.73 560.591 6591.79 557.731C6597.78 554.902 6596.99 547.548 6597 542L6597 497L6597 366C6597 350.579 6592.13 324.982 6599.03 311C6609.51 289.782 6628.32 270.032 6642.39 251C6670.88 212.442 6699.22 173.751 6727.45 135C6736.95 121.966 6746.54 109 6756.09 96C6760.58 89.8858 6767.12 83.2308 6769.66 76.0056C6774.18 63.0981 6756.45 65 6749 65L6689 65C6681.39 65 6669.93 62.9144 6663.26 67.2693C6652.31 74.415 6644.16 91.5187 6636.55 102C6617.17 128.679 6597.8 155.361 6578.37 182C6571.32 191.656 6564.42 201.426 6557.26 210.992C6554.91 214.126 6551.59 219.321 6547.12 219.279C6541.13 219.223 6536.27 209.179 6533.29 205L6501.29 160C6485.37 137.711 6469.63 115.29 6453.71 93C6447.98 84.9772 6441.27 70.3519 6431.9 66.2693C6426.11 63.7467 6418.17 65 6412 65L6370 65C6358.54 65 6338.7 61.1842 6328.3 66.2693z"
     id="path8" />
  <path
     style="fill:#ffffff;stroke:none;fill-opacity:1"
     d="M5106.21 159.269C5099.23 162.566 5101 172.702 5101 179L5101 238C5101 244.061 5098.73 256.318 5104.62 260.276C5113.59 266.302 5136.41 262 5147 262L5222 262C5239.7 262 5257.9 262.758 5274 254.083C5306.04 236.822 5307.44 183.985 5275 166.494C5259 157.866 5239.67 158 5222 158L5150 158C5137.87 158 5117.28 154.045 5106.21 159.269z"
     id="path10" />
  <path
     style="fill:#054ba9;stroke:#054ba9;stroke-opacity:1"
     d="M14 850L14 851C25.0595 848.018 35.123 840.644 45 835C63.35 824.514 81.5719 813.802 100 803.452C163.074 768.026 225.77 731.931 289 696.778C492.624 583.571 696.576 468.89 907 368.695C976.88 335.421 1046.45 300.824 1119 273.563C1153.59 260.566 1191.44 244.23 1229 245.033C1263.69 245.774 1300.05 262.151 1332 274.31C1401.61 300.804 1469.11 333.12 1536 365.729C1743.42 466.845 1946.99 576.682 2148 690.015C2212.34 726.289 2276.87 762.212 2341 798.857L2400 832.571C2410.05 838.316 2420.57 846.545 2432 849C2404.02 825.552 2368.84 808.05 2338 788.548C2273.38 747.689 2208.24 707.628 2143 667.776C1951.92 551.062 1759.72 434.926 1562 329.707C1487.8 290.221 1413.31 251.131 1336 218C1301.95 203.409 1259 182.121 1221 184.608C1174.71 187.638 1128.76 210.911 1087 229.443C1001.2 267.517 918.174 312.271 836 357.548C644.383 463.127 456.349 575.254 270 689.835C184.325 742.515 100.412 798.607 14 850z"
     id="path12" />
  <path
     style="fill:#2dad17; stroke:none;"
     d="M3 858L3 859C31.0093 853.372 58.4574 843.051 86 835.452C152.366 817.14 218.571 798.271 285 780.176C477.136 727.84 670.23 678.365 865 636.764C939.227 620.909 1013.84 606.169 1089 595.428C1130.18 589.543 1172.33 583.201 1214 583.004C1337.36 582.422 1461.82 609.493 1582 634.977C1777.87 676.509 1971.85 726.563 2165 779.176C2226.78 796.003 2288.44 813.269 2350 830.857C2381.38 839.822 2413.02 851.573 2445 858C2431.79 848.45 2414.01 843.543 2399 837.376L2311 801.376C2212 760.712 2112.2 721.782 2012 684.188C1852.86 624.483 1692.5 566.853 1529 520.143C1436.58 493.739 1337.8 464.049 1241 462.033C1169.88 460.551 1098.67 475.958 1030 493.125C948.787 513.428 868.638 537.223 789 562.983C523.074 648.999 260.465 749.283 3 858z"
     id="path16" />
  <path
     style="fill:#2dad17; stroke:none;"
     d="M4060 750C4029 761.644 4012.53 801.362 4036.73 827.69C4058.15 850.994 4103.94 849.221 4126 828L4127 828C4130.42 832.613 4134.14 838.541 4139.29 841.373C4148.55 846.468 4166.61 843 4177 843C4169.76 830.477 4153.34 819.893 4148.81 806.272C4145.85 797.338 4167.52 776.668 4155.61 769.616C4152.44 767.733 4148.5 766.814 4145 765.695L4133 762L4126 781L4105 754C4112.13 750.108 4119.17 745.205 4124.43 738.94C4127.81 734.911 4130.49 730.091 4131.87 725C4145.43 674.828 4055.59 662.364 4046.67 708C4045.58 713.551 4045.91 719.52 4047.22 725C4049.44 734.332 4054.87 742.071 4060 750M2943 843C2951.75 843 2969.81 846.443 2977.21 841.373C2982.85 837.502 2985.48 825.317 2987 819L3035 819C3041.52 819 3050.46 817.447 3056.63 819.818C3064.7 822.916 3063.48 835.483 3069.32 840.825C3075.71 846.664 3095.73 843 3104 843C3101.06 829.286 3094.2 815.995 3089 803L3060.6 732C3055.02 718.04 3050.52 695.011 3040.46 683.818C3035.78 678.614 3016.64 679.733 3010.34 681.546C3005.72 682.875 3004.22 688.01 3002.6 692.003C2998.83 701.319 2995.13 710.667 2991.4 720L2959.8 799C2954.06 813.351 2946.62 827.956 2943 843M3169 681L3169 763C3169 779.988 3167.48 796.782 3176.5 812C3202.19 855.349 3281.57 854.222 3303.95 808C3310.86 793.719 3309 777.392 3309 762L3309 681L3276 681L3276 756C3276 768.542 3277.86 782.764 3271 793.965C3257.06 816.752 3217.37 814.782 3205.57 791C3200.09 779.951 3202 765.942 3202 754L3202 681L3169 681M3387 681L3387 843C3420.51 843 3465.2 850.784 3495 832.387C3536.74 806.62 3536.55 719.544 3496 692.839C3466.42 673.357 3420.65 681 3387 681M3602 681L3602 843L3635 843L3635 681L3602 681M3702 681L3702 712L3756 712L3756 843L3789 843L3789 712L3843 712L3843 681L3702 681M4359 843L4395 843C4397.03 836.448 4399.21 825.639 4404.78 821.175C4409.12 817.69 4416.81 819 4422 819L4457 819C4462.04 819 4468.93 817.865 4473.58 820.175C4481.83 824.276 4479.02 838.704 4487.54 842.182C4496.5 845.835 4511.38 843 4521 843C4506.38 802.205 4488.9 762.238 4472.8 722L4461.2 693.001C4459.58 688.981 4458.09 683.53 4453.63 681.818C4447.67 679.529 4427.23 678.628 4422.82 683.818C4412.52 695.924 4407.9 719.244 4402 734C4387.7 769.757 4369.49 805.952 4359 843M4694 797L4693 797C4677.05 808.636 4657.1 813.839 4638 806.749C4609.76 796.264 4600.77 759.143 4616.74 735.005C4628.59 717.105 4651.95 711.161 4672 716.864C4678.4 718.684 4687.37 726.351 4693.97 725.187C4702.17 723.74 4710.7 709.911 4716 704C4684.35 668.476 4620.96 676.649 4592.63 711C4572.92 734.901 4569.96 771.284 4583.11 799C4597.32 828.932 4627.18 843.143 4659 842.996C4673.99 842.926 4688.95 839.438 4702 831.915C4705.77 829.738 4713.58 826.024 4713.56 820.844C4713.52 813.083 4699.13 802.174 4694 797M4926 822L4926 821L4904 797L4903 797C4887.1 808.603 4867.04 813.813 4848 806.749C4819.93 796.337 4810.45 759.095 4826.7 735.005C4838.71 717.183 4861.84 711.129 4882 716.864C4888.4 718.684 4897.37 726.351 4903.97 725.187C4912.21 723.732 4920.58 709.87 4926 704C4899.51 674.274 4843.16 674.174 4814 699.381C4781.13 727.79 4774.5 781.128 4803.47 814.998C4811.5 824.385 4821.59 832.188 4833 837.017C4846.73 842.829 4862.27 843.997 4877 842.719C4895.67 841.099 4911.38 833.348 4926 822M5072 681.472C5049.82 683.246 5029.47 690.735 5014.56 708.018C4980.91 747.021 4991.81 813.857 5040 835.844C5054.49 842.457 5070.24 843.984 5086 842.793C5170.03 836.447 5181.94 710.534 5103 685.398C5093.28 682.303 5082.2 680.655 5072 681.472M5221 681L5221 760C5221 775.624 5219.35 792.397 5226.07 807C5247.84 854.312 5327.92 855.523 5353.98 812C5363.16 796.66 5362 779.208 5362 762L5362 681L5328 681L5328 756C5328 767.956 5330.16 782.196 5323.97 792.99C5310.66 816.22 5269.39 815.693 5257.81 790.999C5252.32 779.304 5254 764.537 5254 752L5254 681L5221 681M5439 681L5439 843L5472 843L5472 745L5544 817C5556.39 829.389 5565.45 842.988 5584 843L5584 681L5551 681L5551 781L5477 707C5465.71 695.706 5456.09 681.062 5439 681M5652 681L5652 712L5706 712L5706 843L5739 843L5739 712L5792 712L5792 681L5652 681M5859 681L5859 843L5892 843L5892 681L5859 681M5967 681L5967 843L6001 843L6001 745L6073 817C6084.84 828.842 6094.17 842.972 6112 843L6112 681L6079 681L6079 781L6005 707C5993.71 695.706 5984.09 681.062 5967 681M6320 746L6265 746L6265 777L6287 777C6287 784.007 6289.33 796.225 6285.37 802.307C6277.38 814.59 6250.92 810.519 6240 805.731C6215.71 795.077 6206.08 763.157 6217.98 740C6228.71 719.124 6253.04 711.009 6275 716.58C6281.71 718.282 6291.34 726.171 6298 725.134C6306.4 723.828 6316.56 709.112 6320 702C6295.99 685.401 6269.21 676.983 6240 683.699C6191.18 694.921 6167.5 749.966 6185.67 795C6201.33 833.847 6244.95 850.196 6284 840.581C6295.08 837.854 6309.86 832.955 6317.18 823.619C6321.76 817.787 6320 807.946 6320 801L6320 746z"
     id="path20" />
  <path
     style="fill:#ffffff;stroke:none;fill-opacity:1"
     d="M4089 735C4092.37 732.738 4095.81 730.462 4098.65 727.537C4100.49 725.645 4102.06 723.501 4102.92 720.981C4109.78 700.745 4071.78 700.191 4077.46 719C4078.23 721.528 4079.63 723.846 4081.14 725.986C4083.45 729.25 4086.24 732.119 4089 735M5075 712.735C5025.32 713.694 5010.29 786.28 5055 807.611C5062.29 811.089 5070 812.13 5078 811.964C5139.64 810.679 5136.78 711.543 5075 712.735M3420 715L3420 810C3437.52 810 3459.62 813.597 3474.94 803.249C3498.8 787.132 3498.26 736.327 3473.98 720.906C3458.87 711.309 3437.08 715 3420 715M3024 727L3001 785L3047 785C3041.2 766.248 3034.23 743.771 3024 727M4440 727L4418 785L4463 785C4458.05 766.574 4450.42 743.012 4440 727M4107 807L4078 770C4058.83 776.066 4047 806.104 4070.01 815.968C4083.32 821.677 4096.1 814.04 4107 807z"
     id="path22" />
  <path
     style="fill:#05217b; stroke:none;"
     d="M2947 820L2950 822L2947 820z"
     id="path24" />
  <path
     style="fill:#1b5d51; stroke:none;"
     d="M2445 857L2449 860L2445 857z"
     id="path26" />
</svg>
