<?xml version="1.0" encoding="UTF-8" standalone="no"?>
<svg
   width="2449"
   height="860"
   version="1.1"
   id="svg36"
   sodipodi:docname="LogoArch2022.svg"
   inkscape:version="1.1.1 (3bf5ae0d25, 2021-09-20)"
   xmlns:inkscape="http://www.inkscape.org/namespaces/inkscape"
   xmlns:sodipodi="http://sodipodi.sourceforge.net/DTD/sodipodi-0.dtd"
   xmlns="http://www.w3.org/2000/svg"
   xmlns:svg="http://www.w3.org/2000/svg">
  <defs
     id="defs40" />
  <sodipodi:namedview
     id="namedview38"
     pagecolor="#ffffff"
     bordercolor="#666666"
     borderopacity="1.0"
     inkscape:pageshadow="2"
     inkscape:pageopacity="0.0"
     inkscape:pagecheckerboard="0"
     showgrid="false"
     inkscape:zoom="0.36149354"
     inkscape:cx="1215.7894"
     inkscape:cy="-510.38256"
     inkscape:window-width="3200"
     inkscape:window-height="1711"
     inkscape:window-x="-9"
     inkscape:window-y="-9"
     inkscape:window-maximized="1"
     inkscape:current-layer="svg36" />
  <path
     style="fill:#04207a;stroke:#04207a;fill-opacity:1;stroke-opacity:1"
     d="M0 860C9.64659 855.727 18.0487 848.029 27 842.424C48.7641 828.797 70.3138 814.808 92 801.053C151.317 763.431 211.106 726.505 271 689.811C466.888 569.799 664.008 451.194 866 341.691C943.811 299.509 1022.29 259.078 1103 222.694C1142.29 204.983 1189.96 181.843 1234 185.089C1269.69 187.719 1306.54 205.726 1339 219.579C1409.02 249.456 1477.07 284.496 1544 320.691C1761.11 438.11 1974.16 563.409 2184 693.424C2245.43 731.485 2306.78 769.654 2368 808.05C2386.08 819.388 2403.92 831.101 2422 842.424C2429.43 847.079 2436.16 854.295 2445 856C2435.71 846.056 2423.62 838.096 2413 829.6L2354 782.4C2291.02 732.016 2227.62 682.146 2164 632.576C1974.71 485.092 1783.62 339.908 1587 202.28C1510.85 148.976 1433.23 96.4575 1352 51.1396C1316.72 31.4597 1273.39 2.99072 1232 0.0894775C1193.16 -2.63257 1153.02 20.8354 1120 38.6913C1043.56 80.0328 970.527 127.675 899 176.974C684.196 325.026 476.754 483.267 271 643.576C208.356 692.383 146.011 741.589 84 791.2L28 836C18.8634 843.31 6.94628 850.563 0 860z"
     id="path4" />
  <path
     style="fill:#044ba8;stroke:#044ba8;stroke-opacity:1;fill-opacity:1"
     d="M14 850L14 851C25.2086 847.453 35.8523 839.314 46 833.424C64.9252 822.441 83.9961 811.697 103 800.85C164.831 765.557 226.837 730.559 289 695.86C422.752 621.201 556.901 546.988 693 476.742C762.99 440.617 832.378 402.578 904 369.691C976.416 336.44 1047.18 299.844 1122 271.95C1154.31 259.906 1190.9 243.6 1226 244.004C1263.27 244.433 1302.87 262.386 1337 275.797C1405.91 302.874 1471.81 335.841 1539 366.691C1620.77 404.238 1700.46 447.251 1780 489.219C1908.18 556.853 2035.43 626.208 2162 696.86C2223.18 731.011 2284.08 765.652 2345 800.281L2402 832.85C2411.49 838.269 2421.49 845.909 2432 849C2424.11 841.446 2413.18 836.206 2404 830.308C2384.42 817.72 2364.72 805.318 2345 792.95C2283.19 754.182 2221.02 716.004 2159 677.576C1958.37 553.264 1754.77 431.377 1546 321.219C1474.42 283.449 1402.7 245.921 1328 214.576C1292.72 199.769 1252.06 181.203 1213 185.171C1168.8 189.661 1123.96 212.679 1084 230.694C998.571 269.207 916.328 314.06 834 358.691C637.702 465.108 445.78 580.837 256 698.424C201.275 732.332 146.569 766.263 92 800.424C66.0087 816.696 40.7756 835.093 14 850z"
     id="path8" />
  <path
     style="fill:#2cac16;stroke:#2cac16;fill-opacity:1;stroke-opacity:1"
     d="M3 858L3 859C30.7916 854.896 58.9037 842.958 86 835.424C145.007 819.018 203.885 802.161 263 786.151C462.555 732.105 662.73 679.8 865 636.789C938.599 621.139 1012.51 606.464 1087 595.729C1127.53 589.888 1169.04 583.491 1210 583.004C1338.98 581.469 1469.37 611.074 1595 637.789C1793.96 680.097 1990.71 731.991 2187 785.151C2244.47 800.716 2301.74 817.095 2359 833.421C2386.95 841.39 2416.29 853.76 2445 858C2432.93 847.997 2413.44 843.276 2399 837.397C2369.32 825.313 2339.63 813.213 2310 800.989C2206.45 758.262 2101.8 718.106 1997 678.576C1836.57 618.066 1674.26 560.524 1509 514.576C1423.4 490.775 1332.39 464.205 1243 462.015C1171.23 460.256 1099.32 475.797 1030 493.127C948.454 513.513 867.904 537.286 788 563.33C522.149 649.982 261.629 751.893 3 858z"
     id="path16" />
  <path
     style="fill:#263a74; stroke:none;"
     d="M1955.67 583.333L1956.33 583.667L1955.67 583.333M490.667 584.333L491.333 584.667L490.667 584.333M1957.67 584.333L1958.33 584.667L1957.67 584.333M489 585L490 586L489 585M1959.67 585.333L1960.33 585.667L1959.67 585.333M487 586L488 587L487 586M1961 586L1962 587L1961 586M485.667 587.333L486.333 587.667L485.667 587.333M1963 587L1964 588L1963 587M483.667 588.333L484.333 588.667L483.667 588.333M1964.67 588.333L1965.33 588.667L1964.67 588.333M481.667 589.333L482.333 589.667L481.667 589.333M1966.67 589.333L1967.33 589.667L1966.67 589.333M479.667 590.333L480.333 590.667L479.667 590.333M1968.67 590.333L1969.33 590.667L1968.67 590.333M478 591L479 592L478 591M1970.67 591.333L1971.33 591.667L1970.67 591.333M476 592L477 593L476 592M1972 592L1973 593L1972 592M474.667 593.333L475.333 593.667L474.667 593.333M1974 593L1975 594L1974 593M472.667 594.333L473.333 594.667L472.667 594.333M1975.67 594.333L1976.33 594.667L1975.67 594.333M470.667 595.333L471.333 595.667L470.667 595.333M1977.67 595.333L1978.33 595.667L1977.67 595.333M468.667 596.333L469.333 596.667L468.667 596.333M1979.67 596.333L1980.33 596.667L1979.67 596.333M467 597L468 598L467 597M1981.67 597.333L1982.33 597.667L1981.67 597.333M465 598L466 599L465 598M1983 598L1984 599L1983 598M463.667 599.333L464.333 599.667L463.667 599.333M1985 599L1986 600L1985 599M461.667 600.333L462.333 600.667L461.667 600.333M1986.67 600.333L1987.33 600.667L1986.67 600.333M459.667 601.333L460.333 601.667L459.667 601.333M1988.67 601.333L1989.33 601.667L1988.67 601.333M457.667 602.333L458.333 602.667L457.667 602.333M1990.67 602.333L1991.33 602.667L1990.67 602.333M456 603L457 604L456 603M1992.67 603.333L1993.33 603.667L1992.67 603.333M454 604L455 605L454 604M1994 604L1995 605L1994 604M452.667 605.333L453.333 605.667L452.667 605.333M1996 605L1997 606L1996 605M450.667 606.333L451.333 606.667L450.667 606.333M1997.67 606.333L1998.33 606.667L1997.67 606.333M448.667 607.333L449.333 607.667L448.667 607.333M1999.67 607.333L2000.33 607.667L1999.67 607.333M446.667 608.333L447.333 608.667L446.667 608.333M2001.67 608.333L2002.33 608.667L2001.67 608.333M445 609L446 610L445 609M2003 609L2004 610L2003 609M443 610L444 611L443 610M2005 610L2006 611L2005 610M441.667 611.333L442.333 611.667L441.667 611.333M2006.67 611.333L2007.33 611.667L2006.67 611.333M439.667 612.333L440.333 612.667L439.667 612.333M2008.67 612.333L2009.33 612.667L2008.67 612.333M437.667 613.333L438.333 613.667L437.667 613.333M2010.67 613.333L2011.33 613.667L2010.67 613.333M436 614L437 615L436 614M2012.67 614.333L2013.33 614.667L2012.67 614.333M434 615L435 616L434 615M2014 615L2015 616L2014 615M432 616L433 617L432 616M2016 616L2017 617L2016 616M430.667 617.333L431.333 617.667L430.667 617.333M2017.67 617.333L2018.33 617.667L2017.67 617.333M428.667 618.333L429.333 618.667L428.667 618.333M2019.67 618.333L2020.33 618.667L2019.67 618.333M426.667 619.333L427.333 619.667L426.667 619.333M2021.67 619.333L2022.33 619.667L2021.67 619.333M425 620L426 621L425 620M2023.67 620.333L2024.33 620.667L2023.67 620.333M423 621L424 622L423 621M2025 621L2026 622L2025 621M421.667 622.333L422.333 622.667L421.667 622.333M2027 622L2028 623L2027 622M419.667 623.333L420.333 623.667L419.667 623.333M2028.67 623.333L2029.33 623.667L2028.67 623.333M417.667 624.333L418.333 624.667L417.667 624.333M2030.67 624.333L2031.33 624.667L2030.67 624.333M416 625L417 626L416 625M2032.67 625.333L2033.33 625.667L2032.67 625.333M414 626L415 627L414 626M2034 626L2035 627L2034 626M412 627L413 628L412 627M2036 627L2037 628L2036 627M410.667 628.333L411.333 628.667L410.667 628.333M2037.67 628.333L2038.33 628.667L2037.67 628.333M408.667 629.333L409.333 629.667L408.667 629.333M2039.67 629.333L2040.33 629.667L2039.67 629.333M406.667 630.333L407.333 630.667L406.667 630.333M2041.67 630.333L2042.33 630.667L2041.67 630.333M405 631L406 632L405 631M2043.67 631.333L2044.33 631.667L2043.67 631.333M403 632L404 633L403 632M2045 632L2046 633L2045 632M401.667 633.333L402.333 633.667L401.667 633.333M2047 633L2048 634L2047 633M399.667 634.333L400.333 634.667L399.667 634.333M2048.67 634.333L2049.33 634.667L2048.67 634.333M397.667 635.333L398.333 635.667L397.667 635.333M2050.67 635.333L2051.33 635.667L2050.67 635.333M396 636L397 637L396 636M2052.67 636.333L2053.33 636.667L2052.67 636.333M394 637L395 638L394 637M2054 637L2055 638L2054 637M392.667 638.333L393.333 638.667L392.667 638.333M2056 638L2057 639L2056 638M390.667 639.333L391.333 639.667L390.667 639.333M2057.67 639.333L2058.33 639.667L2057.67 639.333M388.667 640.333L389.333 640.667L388.667 640.333M2059.67 640.333L2060.33 640.667L2059.67 640.333M386.667 641.333L387.333 641.667L386.667 641.333M2061.67 641.333L2062.33 641.667L2061.67 641.333M385 642L386 643L385 642M2063.67 642.333L2064.33 642.667L2063.67 642.333M383 643L384 644L383 643M2065 643L2066 644L2065 643M381.667 644.333L382.333 644.667L381.667 644.333M2066.67 644.333L2067.33 644.667L2066.67 644.333M379.667 645.333L380.333 645.667L379.667 645.333M2068.67 645.333L2069.33 645.667L2068.67 645.333M377.667 646.333L378.333 646.667L377.667 646.333M2070.67 646.333L2071.33 646.667L2070.67 646.333M376 647L377 648L376 647M2072.67 647.333L2073.33 647.667L2072.67 647.333M374 648L375 649L374 648M2074 648L2075 649L2074 648M372.667 649.333L373.333 649.667L372.667 649.333M2076 649L2077 650L2076 649M370.667 650.333L371.333 650.667L370.667 650.333M2077.67 650.333L2078.33 650.667L2077.67 650.333M368.667 651.333L369.333 651.667L368.667 651.333M2079.67 651.333L2080.33 651.667L2079.67 651.333M367 652L368 653L367 652M2081.67 652.333L2082.33 652.667L2081.67 652.333M365 653L366 654L365 653M2083 653L2084 654L2083 653M363.667 654.333L364.333 654.667L363.667 654.333M2085 654L2086 655L2085 654M361.667 655.333L362.333 655.667L361.667 655.333M2086.67 655.333L2087.33 655.667L2086.67 655.333M359.667 656.333L360.333 656.667L359.667 656.333M2088.67 656.333L2089.33 656.667L2088.67 656.333M358 657L359 658L358 657M2090.67 657.333L2091.33 657.667L2090.67 657.333M356 658L357 659L356 658M2092 658L2093 659L2092 658M354.667 659.333L355.333 659.667L354.667 659.333M2094 659L2095 660L2094 659M352.667 660.333L353.333 660.667L352.667 660.333M2095.67 660.333L2096.33 660.667L2095.67 660.333M350.667 661.333L351.333 661.667L350.667 661.333M2097.67 661.333L2098.33 661.667L2097.67 661.333M349 662L350 663L349 662M2099.67 662.333L2100.33 662.667L2099.67 662.333M347 663L348 664L347 663M2101 663L2102 664L2101 663M345.667 664.333L346.333 664.667L345.667 664.333M2103 664L2104 665L2103 664M343.667 665.333L344.333 665.667L343.667 665.333M2104.67 665.333L2105.33 665.667L2104.67 665.333M341.667 666.333L342.333 666.667L341.667 666.333M2106.67 666.333L2107.33 666.667L2106.67 666.333M340 667L341 668L340 667M2108.67 667.333L2109.33 667.667L2108.67 667.333M338 668L339 669L338 668M2110 668L2111 669L2110 668M336.667 669.333L337.333 669.667L336.667 669.333M2112 669L2113 670L2112 669M334.667 670.333L335.333 670.667L334.667 670.333M2113.67 670.333L2114.33 670.667L2113.67 670.333M332.667 671.333L333.333 671.667L332.667 671.333M2115.67 671.333L2116.33 671.667L2115.67 671.333M331 672L332 673L331 672M2117.67 672.333L2118.33 672.667L2117.67 672.333M329 673L330 674L329 673M2119 673L2120 674L2119 673M327.667 674.333L328.333 674.667L327.667 674.333M2121 674L2122 675L2121 674M325.667 675.333L326.333 675.667L325.667 675.333M2122.67 675.333L2123.33 675.667L2122.67 675.333M323.667 676.333L324.333 676.667L323.667 676.333M2124.67 676.333L2125.33 676.667L2124.67 676.333M322 677L323 678L322 677M2126.67 677.333L2127.33 677.667L2126.67 677.333M320 678L321 679L320 678M2128 678L2129 679L2128 678M318.667 679.333L319.333 679.667L318.667 679.333M2130 679L2131 680L2130 679M316.667 680.333L317.333 680.667L316.667 680.333M2131.67 680.333L2132.33 680.667L2131.67 680.333M314.667 681.333L315.333 681.667L314.667 681.333M2133.67 681.333L2134.33 681.667L2133.67 681.333M313 682L314 683L313 682M2135.67 682.333L2136.33 682.667L2135.67 682.333M311 683L312 684L311 683M2137 683L2138 684L2137 683M309.667 684.333L310.333 684.667L309.667 684.333M2139 684L2140 685L2139 684M307.667 685.333L308.333 685.667L307.667 685.333M2140.67 685.333L2141.33 685.667L2140.67 685.333M305.667 686.333L306.333 686.667L305.667 686.333M2142.67 686.333L2143.33 686.667L2142.67 686.333M304 687L305 688L304 687M2144.67 687.333L2145.33 687.667L2144.67 687.333M302 688L303 689L302 688M2146 688L2147 689L2146 688M300.667 689.333L301.333 689.667L300.667 689.333M2148 689L2149 690L2148 689M298.667 690.333L299.333 690.667L298.667 690.333M2149.67 690.333L2150.33 690.667L2149.67 690.333M296.667 691.333L297.333 691.667L296.667 691.333M2151.67 691.333L2152.33 691.667L2151.67 691.333M295 692L296 693L295 692M2153.67 692.333L2154.33 692.667L2153.67 692.333M293 693L294 694L293 693M2155 693L2156 694L2155 693M291.667 694.333L292.333 694.667L291.667 694.333M2156.67 694.333L2157.33 694.667L2156.67 694.333M289.667 695.333L290.333 695.667L289.667 695.333M2158.67 695.333L2159.33 695.667L2158.67 695.333M287.667 696.333L288.333 696.667L287.667 696.333M2160.67 696.333L2161.33 696.667L2160.67 696.333M286 697L287 698L286 697M2162.67 697.333L2163.33 697.667L2162.67 697.333M284 698L285 699L284 698M2164 698L2165 699L2164 698M282.667 699.333L283.333 699.667L282.667 699.333M2165.67 699.333L2166.33 699.667L2165.67 699.333M280.667 700.333L281.333 700.667L280.667 700.333M2167.67 700.333L2168.33 700.667L2167.67 700.333M279 701L280 702L279 701M2169.67 701.333L2170.33 701.667L2169.67 701.333M277 702L278 703L277 702M2171 702L2172 703L2171 702M275.667 703.333L276.333 703.667L275.667 703.333M2173 703L2174 704L2173 703M273.667 704.333L274.333 704.667L273.667 704.333M2174.67 704.333L2175.33 704.667L2174.67 704.333M271.667 705.333L272.333 705.667L271.667 705.333M2176.67 705.333L2177.33 705.667L2176.67 705.333M270 706L271 707L270 706M2178.67 706.333L2179.33 706.667L2178.67 706.333M268 707L269 708L268 707M2180 707L2181 708L2180 707M266.667 708.333L267.333 708.667L266.667 708.333M2182 708L2183 709L2182 708M264.667 709.333L265.333 709.667L264.667 709.333M2183.67 709.333L2184.33 709.667L2183.67 709.333M262.667 710.333L263.333 710.667L262.667 710.333M2185.67 710.333L2186.33 710.667L2185.67 710.333M261 711L262 712L261 711M2187.67 711.333L2188.33 711.667L2187.67 711.333M259 712L260 713L259 712M2189 712L2190 713L2189 712M257.667 713.333L258.333 713.667L257.667 713.333M2190.67 713.333L2191.33 713.667L2190.67 713.333M255.667 714.333L256.333 714.667L255.667 714.333M2192.67 714.333L2193.33 714.667L2192.67 714.333M254 715L255 716L254 715M2194.67 715.333L2195.33 715.667L2194.67 715.333M252 716L253 717L252 716M2196 716L2197 717L2196 716M250.667 717.333L251.333 717.667L250.667 717.333M2198 717L2199 718L2198 717M248.667 718.333L249.333 718.667L248.667 718.333M2199.67 718.333L2200.33 718.667L2199.67 718.333M246.667 719.333L247.333 719.667L246.667 719.333M2201.67 719.333L2202.33 719.667L2201.67 719.333M245 720L246 721L245 720M2203.67 720.333L2204.33 720.667L2203.67 720.333M243 721L244 722L243 721M2205 721L2206 722L2205 721M241.667 722.333L242.333 722.667L241.667 722.333M2206.67 722.333L2207.33 722.667L2206.67 722.333M239.667 723.333L240.333 723.667L239.667 723.333M2208.67 723.333L2209.33 723.667L2208.67 723.333M237.667 724.333L238.333 724.667L237.667 724.333M2210.67 724.333L2211.33 724.667L2210.67 724.333M236 725L237 726L236 725M2212 725L2213 726L2212 725M234 726L235 727L234 726M2214 726L2215 727L2214 726M232.667 727.333L233.333 727.667L232.667 727.333M2215.67 727.333L2216.33 727.667L2215.67 727.333M230.667 728.333L231.333 728.667L230.667 728.333M2217.67 728.333L2218.33 728.667L2217.67 728.333M229 729L230 730L229 729M2219.67 729.333L2220.33 729.667L2219.67 729.333M227 730L228 731L227 730M2221 730L2222 731L2221 730M225.667 731.333L226.333 731.667L225.667 731.333M2223 731L2224 732L2223 731M223.667 732.333L224.333 732.667L223.667 732.333M2224.67 732.333L2225.33 732.667L2224.67 732.333M221.667 733.333L222.333 733.667L221.667 733.333M2226.67 733.333L2227.33 733.667L2226.67 733.333M220 734L221 735L220 734M2228 734L2229 735L2228 734M218 735L219 736L218 735M2230 735L2231 736L2230 735M216.667 736.333L217.333 736.667L216.667 736.333M2231.67 736.333L2232.33 736.667L2231.67 736.333M214.667 737.333L215.333 737.667L214.667 737.333M2233.67 737.333L2234.33 737.667L2233.67 737.333M213 738L214 739L213 738M2235.67 738.333L2236.33 738.667L2235.67 738.333M211 739L212 740L211 739M2237 739L2238 740L2237 739M209.667 740.333L210.333 740.667L209.667 740.333M2238.67 740.333L2239.33 740.667L2238.67 740.333M207.667 741.333L208.333 741.667L207.667 741.333M2240.67 741.333L2241.33 741.667L2240.67 741.333M205.667 742.333L206.333 742.667L205.667 742.333M2242.67 742.333L2243.33 742.667L2242.67 742.333M204 743L205 744L204 743M2244 743L2245 744L2244 743M202.667 744.333L203.333 744.667L202.667 744.333M2246 744L2247 745L2246 744M200.667 745.333L201.333 745.667L200.667 745.333M2247.67 745.333L2248.33 745.667L2247.67 745.333M198.667 746.333L199.333 746.667L198.667 746.333M2249.67 746.333L2250.33 746.667L2249.67 746.333M197 747L198 748L197 747M2251.67 747.333L2252.33 747.667L2251.67 747.333M195 748L196 749L195 748M2253 748L2254 749L2253 748M193.667 749.333L194.333 749.667L193.667 749.333M2254.67 749.333L2255.33 749.667L2254.67 749.333M191.667 750.333L192.333 750.667L191.667 750.333M2256.67 750.333L2257.33 750.667L2256.67 750.333M190 751L191 752L190 751M2258.67 751.333L2259.33 751.667L2258.67 751.333M188 752L189 753L188 752M2260 752L2261 753L2260 752M186.667 753.333L187.333 753.667L186.667 753.333M2262 753L2263 754L2262 753M184.667 754.333L185.333 754.667L184.667 754.333M2263.67 754.333L2264.33 754.667L2263.67 754.333M182.667 755.333L183.333 755.667L182.667 755.333M2265.67 755.333L2266.33 755.667L2265.67 755.333M181 756L182 757L181 756M2267 756L2268 757L2267 756M179 757L180 758L179 757M2269 757L2270 758L2269 757M177.667 758.333L178.333 758.667L177.667 758.333M2270.67 758.333L2271.33 758.667L2270.67 758.333M175.667 759.333L176.333 759.667L175.667 759.333M2272.67 759.333L2273.33 759.667L2272.67 759.333M174 760L175 761L174 760M2274.67 760.333L2275.33 760.667L2274.67 760.333M172 761L173 762L172 761M2276 761L2277 762L2276 761M170.667 762.333L171.333 762.667L170.667 762.333M2277.67 762.333L2278.33 762.667L2277.67 762.333M168.667 763.333L169.333 763.667L168.667 763.333M2279.67 763.333L2280.33 763.667L2279.67 763.333M167 764L168 765L167 764M2281.67 764.333L2282.33 764.667L2281.67 764.333M165 765L166 766L165 765M2283 765L2284 766L2283 765M163.667 766.333L164.333 766.667L163.667 766.333M2285 766L2286 767L2285 766M161.667 767.333L162.333 767.667L161.667 767.333M2286.67 767.333L2287.33 767.667L2286.67 767.333M159.667 768.333L160.333 768.667L159.667 768.333M2288.67 768.333L2289.33 768.667L2288.67 768.333M158 769L159 770L158 769M2290 769L2291 770L2290 769M156.667 770.333L157.333 770.667L156.667 770.333M2292 770L2293 771L2292 770M154.667 771.333L155.333 771.667L154.667 771.333M2293.67 771.333L2294.33 771.667L2293.67 771.333M152.667 772.333L153.333 772.667L152.667 772.333M2295.67 772.333L2296.33 772.667L2295.67 772.333M151 773L152 774L151 773M2297.67 773.333L2298.33 773.667L2297.67 773.333M149 774L150 775L149 774M2299 774L2300 775L2299 774M147.667 775.333L148.333 775.667L147.667 775.333M2300.67 775.333L2301.33 775.667L2300.67 775.333M145.667 776.333L146.333 776.667L145.667 776.333M2302.67 776.333L2303.33 776.667L2302.67 776.333M144 777L145 778L144 777M2304.67 777.333L2305.33 777.667L2304.67 777.333M142 778L143 779L142 778M2306 778L2307 779L2306 778M140.667 779.333L141.333 779.667L140.667 779.333M2307.67 779.333L2308.33 779.667L2307.67 779.333M138.667 780.333L139.333 780.667L138.667 780.333M2309.67 780.333L2310.33 780.667L2309.67 780.333M137 781L138 782L137 781M2311.67 781.333L2312.33 781.667L2311.67 781.333M135 782L136 783L135 782M2313 782L2314 783L2313 782M133.667 783.333L134.333 783.667L133.667 783.333M2314.67 783.333L2315.33 783.667L2314.67 783.333M131.667 784.333L132.333 784.667L131.667 784.333M2316.67 784.333L2317.33 784.667L2316.67 784.333M130 785L131 786L130 785M2318.67 785.333L2319.33 785.667L2318.67 785.333M128 786L129 787L128 786M2320 786L2321 787L2320 786M126.667 787.333L127.333 787.667L126.667 787.333M2322 787L2323 788L2322 787M124.667 788.333L125.333 788.667L124.667 788.333M2323.67 788.333L2324.33 788.667L2323.67 788.333M122.667 789.333L123.333 789.667L122.667 789.333M2325.67 789.333L2326.33 789.667L2325.67 789.333M121 790L122 791L121 790M2327 790L2328 791L2327 790M119.667 791.333L120.333 791.667L119.667 791.333M2329 791L2330 792L2329 791M117.667 792.333L118.333 792.667L117.667 792.333M2330.67 792.333L2331.33 792.667L2330.67 792.333M115.667 793.333L116.333 793.667L115.667 793.333M2332.67 793.333L2333.33 793.667L2332.67 793.333M114 794L115 795L114 794M2334 794L2335 795L2334 794M112.667 795.333L113.333 795.667L112.667 795.333M2336 795L2337 796L2336 795M110.667 796.333L111.333 796.667L110.667 796.333M2337.67 796.333L2338.33 796.667L2337.67 796.333M108.667 797.333L109.333 797.667L108.667 797.333M2339.67 797.333L2340.33 797.667L2339.67 797.333M107 798L108 799L107 798M2341 798L2342 799L2341 798M105.667 799.333L106.333 799.667L105.667 799.333M2343 799L2344 800L2343 799M103.667 800.333L104.333 800.667L103.667 800.333M2344.67 800.333L2345.33 800.667L2344.67 800.333M101.667 801.333L102.333 801.667L101.667 801.333M2346.67 801.333L2347.33 801.667L2346.67 801.333M100 802L101 803L100 802M2348 802L2349 803L2348 802M98 803L99 804L98 803M2350 803L2351 804L2350 803M96.6667 804.333L97.3333 804.667L96.6667 804.333M2351.67 804.333L2352.33 804.667L2351.67 804.333M94.6667 805.333L95.3333 805.667L94.6667 805.333M2353.67 805.333L2354.33 805.667L2353.67 805.333M93 806L94 807L93 806M2355.67 806.333L2356.33 806.667L2355.67 806.333M91 807L92 808L91 807M2357 807L2358 808L2357 807M89.6667 808.333L90.3333 808.667L89.6667 808.333M2358.67 808.333L2359.33 808.667L2358.67 808.333M87.6667 809.333L88.3333 809.667L87.6667 809.333M2360.67 809.333L2361.33 809.667L2360.67 809.333M86 810L87 811L86 810M2362.67 810.333L2363.33 810.667L2362.67 810.333M84 811L85 812L84 811M2364 811L2365 812L2364 811M82.6667 812.333L83.3333 812.667L82.6667 812.333M2365.67 812.333L2366.33 812.667L2365.67 812.333M80.6667 813.333L81.3333 813.667L80.6667 813.333M2367.67 813.333L2368.33 813.667L2367.67 813.333M79 814L80 815L79 814M2369.67 814.333L2370.33 814.667L2369.67 814.333M77 815L78 816L77 815M2371 815L2372 816L2371 815M75.6667 816.333L76.3333 816.667L75.6667 816.333M2372.67 816.333L2373.33 816.667L2372.67 816.333M73.6667 817.333L74.3333 817.667L73.6667 817.333M2374.67 817.333L2375.33 817.667L2374.67 817.333M72 818L73 819L72 818M2376.67 818.333L2377.33 818.667L2376.67 818.333M70 819L71 820L70 819M2378 819L2379 820L2378 819M68.6667 820.333L69.3333 820.667L68.6667 820.333M2379.67 820.333L2380.33 820.667L2379.67 820.333M66.6667 821.333L67.3333 821.667L66.6667 821.333M2381.67 821.333L2382.33 821.667L2381.67 821.333M65 822L66 823L65 822M2383 822L2384 823L2383 822M63 823L64 824L63 823M2385 823L2386 824L2385 823M61.6667 824.333L62.3333 824.667L61.6667 824.333M2386.67 824.333L2387.33 824.667L2386.67 824.333M59.6667 825.333L60.3333 825.667L59.6667 825.333M2388.67 825.333L2389.33 825.667L2388.67 825.333M58 826L59 827L58 826M2390 826L2391 827L2390 826M56.6667 827.333L57.3333 827.667L56.6667 827.333M2392 827L2393 828L2392 827M54.6667 828.333L55.3333 828.667L54.6667 828.333M2393.67 828.333L2394.33 828.667L2393.67 828.333M52.6667 829.333L53.3333 829.667L52.6667 829.333M2395.67 829.333L2396.33 829.667L2395.67 829.333M51 830L52 831L51 830M2397 830L2398 831L2397 830M49.6667 831.333L50.3333 831.667L49.6667 831.333M2399 831L2400 832L2399 831M47.6667 832.333L48.3333 832.667L47.6667 832.333M2400.67 832.333L2401.33 832.667L2400.67 832.333M45.6667 833.333L46.3333 833.667L45.6667 833.333M2402.67 833.333L2403.33 833.667L2402.67 833.333M44 834L45 835L44 834M2404 834L2405 835L2404 834M42.6667 835.333L43.3333 835.667L42.6667 835.333M2406 835L2407 836L2406 835M40.6667 836.333L41.3333 836.667L40.6667 836.333M2407.67 836.333L2408.33 836.667L2407.67 836.333M39 837L40 838L39 837M2409.67 837.333L2410.33 837.667L2409.67 837.333M37 838L38 839L37 838M2411 838L2412 839L2411 838M35.6667 839.333L36.3333 839.667L35.6667 839.333M2413 839L2414 840L2413 839M33.6667 840.333L34.3333 840.667L33.6667 840.333M2414.67 840.333L2415.33 840.667L2414.67 840.333M32 841L33 842L32 841M2416.67 841.333L2417.33 841.667L2416.67 841.333M30 842L31 843L30 842M2418 842L2419 843L2418 842M28.6667 843.333L29.3333 843.667L28.6667 843.333M2419.67 843.333L2420.33 843.667L2419.67 843.333M26.6667 844.333L27.3333 844.667L26.6667 844.333M2421.67 844.333L2422.33 844.667L2421.67 844.333M25 845L26 846L25 845M2423.67 845.333L2424.33 845.667L2423.67 845.333M23 846L24 847L23 846M2425 846L2426 847L2425 846M21.6667 847.333L22.3333 847.667L21.6667 847.333M2426.67 847.333L2427.33 847.667L2426.67 847.333M19.6667 848.333L20.3333 848.667L19.6667 848.333M2428.67 848.333L2429.33 848.667L2428.67 848.333M18 849L19 850L18 849M2430.67 849.333L2431.33 849.667L2430.67 849.333M16 850L17 851L16 850M2432 850L2433 851L2432 850M12 852L12 853L16 852L12 852M2433.67 851.333L2434.33 851.667L2433.67 851.333M2435.67 852.333L2436.33 852.667L2435.67 852.333M9 855L12 853L9 855M2437.67 853.333L2438.33 853.667L2437.67 853.333M2439 854L2440 855L2439 854M7.66667 855.333L8.33333 855.667L7.66667 855.333z"
     id="path22" />
  <path
     style="fill:#0549a3; stroke:none;"
     d="M2441 855L2442 856L2441 855z"
     id="path24" />
  <path
     style="fill:#263a74; stroke:none;"
     d="M5.66667 856.333L6.33333 856.667L5.66667 856.333z"
     id="path26" />
  <path
     style="fill:#0549a3; stroke:none;"
     d="M2443 856L2444 857L2443 856z"
     id="path28" />
  <path
     style="fill:#263a74; stroke:none;"
     d="M2444.67 856.333L2445.33 856.667L2444.67 856.333M4 857L5 858L4 857z"
     id="path30" />
  <path
     style="fill:#0549a3; stroke:none;"
     d="M2445 857L2445 858L2448 859L2445 857z"
     id="path32" />
  <path
     style="fill:#263a74; stroke:none;"
     d="M2446 858L2447 859L2446 858M2447.67 859.333L2448.33 859.667L2447.67 859.333z"
     id="path34" />
</svg>
